<?xml version="1.0" standalone="no"?>
<!DOCTYPE svg PUBLIC "-//W3C//DTD SVG 20010904//EN"
 "http://www.w3.org/TR/2001/REC-SVG-20010904/DTD/svg10.dtd">
<svg version="1.0" xmlns="http://www.w3.org/2000/svg"
 width="1024.000000pt" height="1024.000000pt" viewBox="0 0 1024.000000 1024.000000"
 preserveAspectRatio="xMidYMid meet">
<metadata>
Created by potrace 1.16, written by Peter Selinger 2001-2019
</metadata>
<g transform="translate(0.000000,1024.000000) scale(0.100000,-0.100000)"
fill="#000000" stroke="none">
<path d="M0 5120 l0 -5120 5120 0 5120 0 0 5120 0 5120 -5120 0 -5120 0 0
-5120z m2280 4220 l0 -490 -26 0 c-18 0 -28 -7 -35 -27 -6 -16 -23 -37 -39
-48 -88 -60 -431 -387 -505 -480 -11 -13 -26 -25 -33 -25 -7 0 -15 -8 -19 -17
-3 -10 -12 -25 -20 -33 -13 -15 -131 -166 -236 -303 -29 -38 -59 -76 -67 -86
-8 -10 -24 -35 -35 -56 -11 -21 -32 -54 -47 -73 -16 -19 -28 -38 -28 -42 0 -5
-18 -37 -40 -71 -22 -35 -45 -73 -50 -84 -5 -11 -23 -42 -39 -70 -32 -58 -149
-289 -178 -355 -11 -25 -27 -61 -36 -80 -8 -19 -23 -55 -32 -80 -29 -76 -31
-84 -54 -133 -11 -26 -21 -58 -21 -71 0 -13 -6 -29 -14 -35 -8 -7 -18 -31 -21
-54 -4 -23 -13 -49 -20 -57 -7 -8 -16 -40 -20 -70 -4 -30 -13 -66 -20 -80 -7
-14 -15 -43 -19 -65 -17 -104 -8 -95 -97 -95 l-79 0 0 1785 0 1785 915 0 915
0 0 -490z m162 69 c3 -438 1 -459 -38 -459 -8 0 -17 -7 -21 -15 -3 -9 -14 -15
-24 -13 -12 2 -24 -6 -32 -21 -6 -14 -18 -26 -24 -29 -10 -3 -13 97 -13 477
l0 481 75 0 75 0 2 -421z m166 44 c-3 -328 -5 -378 -18 -378 -8 0 -23 -10 -33
-22 -10 -13 -23 -23 -30 -23 -6 0 -21 -9 -33 -21 -12 -12 -27 -18 -33 -14 -8
4 -11 136 -11 421 l0 414 80 0 80 0 -2 -377z m54 25 c2 -282 0 -354 -10 -365
-8 -7 -17 -11 -20 -9 -4 2 -6 167 -4 365 2 307 5 361 17 361 12 0 15 -52 17
-352z m70 26 c3 -340 1 -364 -39 -364 -11 0 -14 6 -9 23 3 12 6 167 6 345 0
314 0 322 20 322 19 0 20 -9 22 -326z m68 13 c0 -307 0 -312 -21 -325 -12 -8
-24 -10 -28 -5 -3 4 -5 151 -3 326 l3 317 24 0 25 0 0 -313z m150 42 c0 -247
-2 -273 -17 -285 -10 -7 -24 -14 -31 -14 -7 0 -20 -7 -28 -15 -9 -8 -22 -15
-30 -15 -12 0 -14 47 -14 300 l0 300 60 0 60 0 0 -271z m42 14 c2 -142 2 -261
0 -266 -2 -4 -8 -5 -13 -2 -12 8 -12 525 1 525 6 0 10 -100 12 -257z m38 1 c0
-200 -3 -255 -12 -252 -10 4 -14 66 -16 256 -2 220 0 252 13 252 13 0 15 -34
15 -256z m48 14 c-2 -154 -7 -243 -13 -243 -6 0 -11 89 -13 243 -2 212 0 242
13 242 13 0 15 -30 13 -242z m40 10 c-2 -174 -6 -232 -15 -236 -10 -3 -13 48
-13 232 0 204 2 236 15 236 13 0 15 -30 13 -232z m82 23 l0 -209 -25 -16 c-14
-9 -30 -14 -35 -11 -6 4 -10 94 -10 226 l0 219 35 0 35 0 0 -209z m50 3 c0
-190 -1 -205 -17 -202 -16 3 -18 22 -21 206 -2 197 -2 202 18 202 19 0 20 -6
20 -206z m110 26 c0 -136 -3 -182 -12 -184 -7 -3 -25 -7 -40 -10 l-28 -6 0
190 0 190 40 0 40 0 0 -180z m100 21 l0 -159 -31 -11 c-18 -6 -36 -11 -40 -11
-5 0 -9 77 -9 170 l0 170 40 0 40 0 0 -159z m290 50 l0 -108 -43 -17 c-23 -9
-50 -16 -58 -16 -8 0 -34 -9 -58 -20 -24 -12 -51 -18 -62 -15 -11 4 -19 2 -19
-4 0 -6 -7 -11 -15 -11 -13 0 -15 23 -15 150 l0 150 135 0 135 0 0 -109z m82
17 c3 -100 -6 -122 -47 -116 -18 3 -20 12 -23 106 l-3 102 35 0 35 0 3 -92z
m58 2 c0 -83 -1 -90 -20 -90 -19 0 -20 7 -20 90 0 83 1 90 20 90 19 0 20 -7
20 -90z m92 25 c0 -36 1 -71 2 -77 1 -7 -7 -14 -16 -16 -16 -3 -18 6 -18 77 0
65 3 81 15 81 12 0 15 -15 17 -65z m68 -5 c0 -63 -2 -70 -20 -70 -18 0 -20 7
-20 70 0 63 2 70 20 70 18 0 20 -7 20 -70z m120 20 c0 -27 1 -53 2 -57 1 -5
-6 -9 -15 -11 -14 -3 -17 6 -17 57 0 48 3 61 15 61 11 0 15 -12 15 -50z m92
15 c0 -19 1 -41 2 -47 1 -8 -12 -13 -34 -13 -35 0 -35 0 -38 48 l-3 47 35 0
c34 0 36 -2 38 -35z m148 1 c0 -32 -13 -46 -41 -46 -5 0 -9 18 -9 40 0 36 3
40 25 40 22 0 25 -4 25 -34z m123 12 c9 -32 1 -38 -49 -38 -42 0 -44 1 -44 30
0 29 2 30 44 30 36 0 45 -4 49 -22z m272 11 c10 -14 7 -15 -57 -23 -54 -6 -58
-5 -58 14 0 18 7 20 54 20 30 0 58 -5 61 -11z m605 1 c0 -6 -105 -10 -295 -10
-190 0 -295 4 -295 10 0 6 105 10 295 10 190 0 295 -4 295 -10z m140 -11 c0
-19 -4 -21 -31 -15 -17 3 -42 6 -55 6 -15 0 -24 6 -24 15 0 12 13 15 55 15 49
0 55 -2 55 -21z m250 -10 c0 -29 -1 -30 -42 -27 -39 3 -43 6 -46 31 -3 26 -2
27 42 27 45 0 46 -1 46 -31z m80 -9 c0 -31 -4 -40 -17 -40 -31 0 -41 14 -36
48 4 26 10 32 29 32 21 0 24 -5 24 -40z m200 -13 c0 -30 -2 -56 -5 -59 -9 -9
-100 19 -99 31 1 6 2 27 3 46 l1 35 50 0 50 0 0 -53z m150 -17 c0 -68 -1 -70
-25 -70 -24 0 -25 2 -25 70 0 68 1 70 25 70 24 0 25 -2 25 -70z m60 -11 c0
-71 -2 -80 -17 -77 -15 3 -18 16 -21 81 -3 72 -1 77 18 77 18 0 20 -6 20 -81z
m190 -18 c0 -62 -4 -102 -11 -107 -6 -3 -38 2 -70 11 l-59 18 0 89 0 88 70 0
70 0 0 -99z m32 -7 c3 -99 -1 -122 -19 -111 -11 7 -4 217 7 217 5 0 10 -48 12
-106z m90 -6 l2 -113 3 113 c3 90 6 112 18 112 12 0 15 -22 15 -130 0 -107 -3
-130 -14 -130 -8 0 -18 5 -21 10 -4 6 -11 8 -16 5 -5 -4 -18 -3 -29 0 -19 6
-20 15 -20 126 l0 119 30 0 30 0 2 -112z m228 -54 l0 -166 -22 5 c-13 3 -51
15 -85 28 l-63 22 0 138 0 139 85 0 85 0 0 -166z m220 -49 c0 -118 -2 -215 -5
-215 -3 0 -13 4 -23 9 -48 25 -109 50 -127 53 -19 3 -20 12 -23 186 l-2 182
90 0 90 0 0 -215z m360 -83 c0 -164 -3 -301 -6 -304 -3 -3 -35 11 -72 31 -80
43 -229 117 -256 125 -11 4 -16 12 -12 22 3 9 6 108 6 220 l0 204 170 0 170 0
0 -298z m100 -26 c0 -206 4 -327 10 -331 7 -4 10 107 10 324 l0 331 45 0 45 0
0 -366 -1 -365 -22 7 c-19 5 -47 24 -67 44 -3 3 -28 17 -55 31 -28 14 -50 31
-49 38 1 6 2 146 3 311 l1 300 40 0 40 0 0 -324z m372 -128 c2 -249 2 -456 0
-460 -4 -11 -102 64 -102 79 0 6 -8 11 -17 11 -10 -1 -44 15 -75 36 l-58 37 0
374 0 375 125 0 125 0 2 -452z m320 -133 c2 -363 -1 -585 -6 -585 -15 0 -66
52 -66 67 0 7 -8 13 -19 13 -10 0 -24 7 -32 16 -7 8 -25 22 -40 30 -15 7 -30
23 -34 34 -3 11 -12 20 -18 20 -7 0 -29 11 -50 25 l-37 26 0 469 0 470 150 0
150 0 2 -585z m1568 -760 l0 -1345 -225 0 c-206 0 -226 2 -232 18 -11 33 -67
148 -100 204 -18 31 -33 63 -33 72 0 9 -4 16 -9 16 -4 0 -24 30 -42 68 -19 37
-40 71 -46 75 -7 4 -13 12 -13 18 0 5 -18 37 -40 71 -23 33 -48 75 -57 91 -8
17 -37 57 -64 89 -27 33 -49 64 -49 71 0 7 -21 35 -46 62 -26 28 -57 66 -70
87 -13 20 -28 39 -34 43 -5 3 -10 15 -10 27 0 13 -5 18 -14 15 -8 -3 -25 11
-42 35 -16 22 -36 48 -45 57 -8 10 -18 25 -22 34 -3 9 -13 17 -22 17 -8 0 -15
7 -15 15 0 9 -8 19 -17 22 -17 6 -32 20 -95 89 -15 16 -38 38 -52 49 -14 11
-27 28 -30 37 -2 10 -11 18 -19 18 -8 0 -17 9 -20 20 -3 11 -12 20 -21 20 -9
0 -16 7 -16 15 0 9 -11 20 -25 25 l-25 10 0 600 0 600 775 0 775 0 0 -1345z
m-4210 1155 c30 -5 100 -14 155 -19 55 -6 132 -17 170 -25 39 -8 104 -22 145
-31 41 -9 86 -18 100 -21 92 -18 132 -28 136 -36 3 -4 16 -8 29 -8 24 0 102
-22 216 -61 31 -10 61 -19 68 -19 7 0 31 -9 53 -20 23 -11 48 -20 55 -20 7 0
32 -8 56 -19 23 -10 92 -40 152 -66 315 -136 529 -255 832 -464 324 -222 720
-608 967 -941 146 -197 245 -350 347 -535 71 -130 190 -376 209 -435 5 -14 23
-59 40 -100 38 -91 120 -330 120 -351 0 -7 7 -27 15 -42 8 -15 19 -55 25 -89
6 -33 15 -68 20 -77 10 -16 30 -112 55 -261 8 -47 20 -105 25 -129 6 -25 15
-95 21 -155 5 -61 15 -142 20 -181 16 -106 22 -593 10 -715 -6 -58 -17 -172
-25 -253 -8 -81 -20 -162 -25 -180 -6 -18 -17 -72 -25 -122 -24 -144 -45 -248
-55 -271 -5 -11 -14 -46 -21 -77 -6 -32 -18 -70 -26 -85 -8 -15 -14 -38 -14
-52 0 -14 -9 -43 -19 -65 -10 -22 -21 -58 -25 -80 -4 -21 -14 -48 -22 -59 -8
-11 -14 -28 -14 -38 0 -10 -9 -37 -19 -60 -10 -24 -29 -68 -41 -98 -13 -30
-31 -73 -41 -95 -9 -22 -27 -62 -39 -90 -21 -48 -28 -62 -49 -102 -5 -10 -22
-45 -39 -78 -16 -33 -39 -78 -52 -100 -13 -22 -34 -60 -47 -85 -14 -25 -35
-61 -48 -80 -190 -296 -297 -442 -469 -640 -175 -201 -597 -578 -800 -715 -33
-22 -98 -66 -145 -98 -47 -32 -93 -61 -101 -64 -8 -3 -23 -12 -32 -20 -22 -19
-74 -49 -120 -69 -21 -9 -38 -20 -38 -25 0 -5 -9 -9 -19 -9 -11 0 -22 -4 -26
-9 -7 -12 -115 -71 -129 -71 -6 0 -22 -9 -36 -20 -14 -11 -33 -20 -42 -20 -10
0 -18 -3 -18 -8 0 -4 -15 -13 -32 -21 -18 -7 -51 -21 -73 -31 -102 -47 -132
-60 -147 -60 -9 0 -21 -6 -27 -14 -6 -7 -30 -17 -54 -20 -23 -4 -51 -13 -62
-20 -11 -7 -42 -18 -70 -26 -27 -7 -54 -17 -60 -21 -5 -4 -28 -10 -50 -14 -22
-4 -53 -13 -70 -20 -30 -12 -139 -42 -185 -51 -14 -3 -65 -14 -115 -24 -242
-52 -433 -75 -824 -97 -195 -11 -827 46 -955 86 -17 5 -60 15 -96 21 -36 7
-74 16 -85 21 -11 5 -47 16 -80 24 -91 23 -187 50 -220 64 -16 7 -43 15 -60
18 -16 4 -39 12 -50 18 -11 7 -36 16 -56 19 -21 4 -42 13 -49 21 -7 8 -22 15
-33 15 -11 0 -41 9 -66 21 -25 11 -65 29 -89 40 -23 10 -61 27 -85 37 -65 29
-307 151 -352 178 -22 13 -51 30 -65 36 -14 7 -51 30 -83 51 -31 20 -59 37
-61 37 -9 0 -181 120 -289 202 -343 259 -595 509 -862 853 -67 87 -212 292
-222 315 -4 8 -23 40 -42 70 -20 30 -42 66 -48 80 -7 14 -24 43 -38 65 -13 22
-41 75 -62 118 -20 42 -41 77 -45 77 -4 0 -8 5 -8 12 0 10 -41 101 -101 223
-10 22 -19 46 -19 52 0 7 -9 27 -20 45 -11 18 -20 41 -20 51 0 9 -9 34 -20 54
-11 21 -20 45 -20 53 -1 8 -9 33 -20 55 -11 22 -19 47 -20 55 0 8 -8 37 -19
65 -10 27 -28 82 -39 120 -11 39 -30 102 -42 140 -11 39 -23 88 -26 110 -4 22
-12 58 -19 80 -7 22 -16 74 -20 115 -4 41 -11 83 -16 92 -5 10 -17 89 -25 175
-9 87 -20 190 -24 228 -11 93 -11 661 0 750 5 39 16 133 24 209 9 77 20 153
26 170 5 17 16 69 24 116 18 110 43 228 55 260 5 14 14 50 21 80 7 30 16 60
20 65 4 6 11 26 15 45 13 65 101 318 144 415 10 22 29 65 41 95 28 65 183 379
214 431 11 20 36 63 55 95 187 318 456 656 730 918 41 39 84 80 95 91 54 53
165 145 174 145 6 0 15 6 19 14 14 25 116 101 323 240 192 130 400 245 615
340 61 27 128 57 150 67 22 10 67 28 100 40 102 37 168 61 219 80 27 11 55 19
63 19 8 0 42 9 76 20 124 39 203 60 229 60 14 0 41 6 60 14 18 8 63 18 98 21
36 4 88 13 117 20 28 8 89 16 135 20 46 4 110 11 143 17 33 6 105 14 160 18
123 10 699 3 775 -10z m4210 -2990 l0 -480 -57 0 -58 0 -17 60 c-10 32 -18 69
-18 81 0 13 -8 48 -18 78 -10 31 -29 90 -42 131 -52 171 -114 345 -127 362 -6
7 -14 32 -18 55 -3 23 -13 47 -21 54 -8 6 -14 19 -14 28 0 9 -9 27 -20 41 -20
25 -25 51 -13 63 3 4 100 7 215 7 l208 0 0 -480z m-9182 -427 c-3 -27 -5 -28
-70 -31 l-68 -3 0 31 0 30 71 0 70 0 -3 -27z m-21 -84 c8 -8 8 -24 -3 -58 -7
-25 -14 -58 -14 -73 0 -27 -2 -28 -50 -28 l-50 0 0 85 0 85 53 0 c29 0 58 -5
64 -11z m9203 -59 c0 -16 -7 -20 -37 -22 l-38 -1 38 -4 37 -4 0 -50 0 -49 -35
0 c-38 0 -43 6 -48 62 -2 21 -7 41 -10 45 -4 3 -7 15 -7 25 0 15 8 18 50 18
43 0 50 -3 50 -20z m-9242 -207 c-3 -24 -8 -28 -40 -31 -36 -3 -38 -2 -38 27
0 30 2 31 41 31 38 0 40 -1 37 -27z m9233 -23 c5 0 9 -8 9 -19 0 -23 -49 -36
-57 -15 -8 23 5 47 23 40 9 -3 20 -6 25 -6z m-9247 -72 c-9 -64 -11 -68 -39
-68 -24 0 -25 3 -25 55 l0 55 35 0 35 0 -6 -42z m9256 -58 c0 -53 -2 -60 -20
-60 -18 0 -20 7 -20 60 0 53 2 60 20 60 18 0 20 -7 20 -60z m-9288 -250 c-3
-60 -5 -65 -21 -55 -6 3 -11 31 -11 61 0 48 3 55 18 52 14 -3 16 -13 14 -58z
m9285 -52 c-3 -8 -6 -5 -6 6 -1 11 2 17 5 13 3 -3 4 -12 1 -19z m-9294 -256
c2 -164 -1 -212 -10 -212 -10 0 -13 50 -13 216 0 148 3 215 11 212 7 -2 11
-76 12 -216z m7 -319 c0 -10 3 -28 6 -40 5 -19 2 -23 -15 -23 -18 0 -21 6 -21
40 0 29 4 40 15 40 8 0 15 -8 15 -17z m9290 -19 c0 -14 -4 -23 -9 -20 -5 3 -7
15 -4 26 7 28 13 25 13 -6z m0 -284 c0 -57 -1 -60 -24 -60 -22 0 -23 3 -19 48
6 63 10 72 28 72 12 0 15 -13 15 -60z m-9265 18 c2 -7 6 -37 10 -65 l6 -53
-36 0 -35 0 0 65 c0 63 1 65 25 65 14 0 27 -6 30 -12z m9256 -118 c5 0 9 -7 9
-15 0 -15 -40 -22 -53 -9 -11 11 5 35 20 30 8 -3 19 -6 24 -6z m-9231 -50 c0
-28 -2 -30 -40 -30 -38 0 -40 2 -40 30 0 28 2 30 40 30 38 0 40 -2 40 -30z
m9240 -155 l0 -75 -50 0 c-28 0 -50 5 -50 10 0 6 6 40 12 75 l13 65 37 0 38 0
0 -75z m-9219 10 c4 -22 12 -52 17 -66 15 -37 -1 -49 -65 -49 l-53 0 0 81 0
80 47 -3 c47 -3 48 -4 54 -43z m9219 -175 l0 -41 -62 3 c-61 3 -63 4 -60 28 4
46 9 50 67 50 l55 0 0 -40z m-9167 -63 c11 -45 27 -109 38 -141 10 -33 19 -69
19 -81 0 -11 9 -38 20 -60 11 -22 20 -48 20 -60 0 -11 9 -40 20 -64 11 -24 20
-51 20 -60 0 -9 9 -34 20 -56 11 -22 20 -46 20 -55 0 -8 9 -30 20 -48 11 -18
20 -39 20 -47 0 -9 4 -23 9 -33 25 -45 111 -235 111 -244 0 -5 9 -21 20 -35
11 -14 20 -32 20 -40 0 -8 9 -26 20 -40 11 -14 20 -31 20 -38 0 -7 6 -18 14
-24 8 -7 18 -26 21 -42 4 -16 10 -29 14 -29 4 0 17 -19 30 -42 12 -24 30 -55
39 -70 20 -31 80 -130 104 -171 9 -16 23 -36 32 -46 9 -10 16 -22 16 -28 0 -5
9 -18 20 -28 11 -10 20 -22 20 -27 0 -5 20 -35 45 -66 25 -31 51 -66 59 -77 9
-11 53 -67 99 -125 46 -58 87 -113 90 -123 4 -9 10 -16 14 -15 9 3 113 -104
113 -116 0 -3 31 -36 70 -72 38 -37 70 -73 70 -80 0 -8 7 -14 15 -14 8 0 18
-8 22 -17 4 -10 7 -303 5 -650 l-2 -633 -740 0 -740 0 0 1840 0 1840 68 0 67
0 18 -83z m9167 -62 l0 -75 -80 0 c-54 0 -80 4 -80 12 0 6 5 40 11 75 l11 63
69 0 69 0 0 -75z m0 -210 l0 -125 -121 0 -120 0 7 48 c3 26 12 54 19 62 7 8
16 35 20 60 12 84 6 80 106 80 l89 0 0 -125z m0 -1735 l0 -1590 -680 0 -680 0
0 689 0 689 23 27 c55 68 163 180 170 177 4 -1 10 6 14 15 6 16 42 66 85 118
71 85 88 108 88 115 0 4 9 10 20 13 11 3 22 13 26 24 3 10 10 25 15 33 5 8 13
25 19 38 5 12 14 22 20 22 6 0 14 10 19 23 5 12 24 42 42 67 35 46 41 56 97
153 19 31 38 57 43 57 5 0 9 9 9 19 0 11 5 23 10 26 6 4 20 25 31 48 12 23 24
44 28 47 3 3 26 46 50 95 24 50 53 102 63 117 10 14 18 31 18 36 0 6 18 50 41
99 72 156 79 173 79 187 0 7 7 19 15 26 7 6 17 31 21 55 3 25 12 49 20 56 7 6
16 27 20 48 3 20 7 42 9 49 3 9 39 12 135 12 l130 0 0 -1590z m-1410 -925 l0
-665 -180 0 -180 0 0 508 0 509 67 54 c37 30 76 62 86 72 40 40 201 187 204
187 2 0 3 -299 3 -665z m-6338 538 c26 -26 48 -53 48 -60 0 -7 7 -13 16 -13 8
0 46 -25 85 -56 l69 -56 0 -509 0 -509 -140 0 -140 0 0 603 c0 331 -3 612 -6
625 -10 36 16 27 68 -25z m263 -231 c6 -13 19 -22 32 -22 13 0 23 -5 23 -10 0
-6 11 -15 25 -20 14 -5 28 -17 31 -25 4 -8 12 -15 19 -15 8 0 22 -11 33 -25
11 -14 27 -25 35 -25 41 0 42 -9 39 -428 l-2 -402 -55 0 -55 0 -2 438 -3 437
-2 -437 -3 -438 -75 0 -75 0 0 501 c0 396 3 500 13 497 6 -3 16 -14 22 -26z
m5705 -472 l0 -500 -75 0 -75 0 2 452 3 452 23 12 c13 6 29 17 35 23 6 6 19
11 29 11 10 0 18 6 18 13 0 14 20 37 32 37 4 0 8 -225 8 -500z m-168 -67 l-2
-433 -60 0 -60 0 -2 393 -3 392 25 22 c14 13 33 20 43 17 10 -3 17 0 17 7 0
17 32 51 39 42 3 -5 5 -203 3 -440z m-5253 343 c14 -13 16 -59 13 -395 -2
-372 -3 -381 -22 -381 -20 0 -20 8 -20 395 0 217 3 395 7 395 3 0 14 -6 22
-14z m5111 -391 l0 -385 -25 0 -25 0 0 373 c0 379 2 397 37 397 10 0 13 -76
13 -385z m-5032 -18 c2 -362 2 -367 -18 -367 -20 0 -20 6 -20 371 0 347 1 370
18 367 16 -3 17 -30 20 -371z m4972 -2 l0 -365 -45 0 -45 0 0 343 0 343 38 22
c20 12 40 22 44 22 4 0 7 -164 8 -365z m-4920 327 c19 -10 53 -30 75 -45 l40
-26 -3 -311 -3 -310 -74 0 -75 0 0 355 c0 195 1 355 3 355 1 0 18 -8 37 -18z
m4810 -362 l0 -330 -40 0 -40 0 0 313 0 313 33 17 c17 8 35 16 40 16 4 1 7
-147 7 -329z m-4612 247 l52 -27 0 -275 0 -275 -60 0 -60 0 0 306 c0 168 3
304 8 302 4 -2 31 -16 60 -31z m4512 -272 l0 -305 -60 0 -60 0 0 274 0 274 33
17 c17 9 43 23 57 31 14 7 26 14 28 14 1 0 2 -137 2 -305z m-4395 207 c19 -16
20 -28 17 -264 l-3 -248 -29 0 -30 0 0 265 c0 280 1 285 45 247z m4253 -250
l2 -262 -30 0 -30 0 0 251 c0 228 2 253 18 265 9 7 22 12 27 10 6 -2 11 -101
13 -264z m-4173 212 l25 -16 0 -229 0 -229 -35 0 -35 0 0 238 c0 212 3 252 17
252 2 0 15 -7 28 -16z m4095 -235 c0 -147 -4 -239 -10 -239 -8 0 -20 463 -12
483 2 4 8 5 13 2 5 -4 9 -109 9 -246z m-40 -4 c0 -202 -2 -235 -15 -235 -13 0
-15 32 -15 228 0 126 3 232 7 235 20 20 23 -13 23 -228z m-3959 192 c14 -12
32 -21 42 -19 16 3 17 -13 17 -202 l0 -206 -60 0 -60 0 0 218 c0 120 3 222 7
225 12 12 30 7 54 -16z m3917 -205 l2 -222 -60 0 -60 0 0 199 0 199 48 24 c26
14 52 24 57 23 6 -1 11 -86 13 -223z m-3740 126 c18 -10 39 -18 47 -18 8 0 34
-9 57 -19 82 -36 143 -60 171 -66 l27 -5 0 -120 0 -120 -195 0 -195 0 0 190 0
190 28 -6 c15 -4 42 -16 60 -26z m3582 -163 c0 -177 -1 -185 -20 -185 -18 0
-19 9 -22 178 -2 97 -2 180 0 185 2 4 12 7 23 7 18 0 19 -9 19 -185z m-70 -15
l0 -170 -40 0 -40 0 2 162 3 162 25 7 c52 14 50 20 50 -161z m-104 114 c-3 -9
-6 -76 -6 -150 l0 -134 -40 0 -40 0 0 140 0 139 33 10 c49 14 60 13 53 -5z
m-96 -154 l0 -130 -50 0 -50 0 0 119 c0 111 1 120 20 126 11 3 24 4 29 0 5 -3
12 -1 16 5 3 5 13 10 21 10 11 0 14 -23 14 -130z m-2930 79 c27 -6 50 -14 50
-19 0 -5 10 -10 23 -12 21 -3 22 -8 25 -90 l3 -88 -86 0 -85 0 0 110 c0 63 4
110 10 110 5 0 32 -5 60 -11z m2808 -102 c2 -91 0 -107 -13 -107 -12 0 -15 17
-17 98 l-2 97 -3 -97 -4 -98 -29 0 -29 0 -3 96 c-3 93 -2 97 20 105 13 5 27 7
32 4 5 -3 12 -1 15 5 4 6 12 9 18 7 8 -2 13 -41 15 -110z m-128 -17 c0 -83 -1
-90 -20 -90 -18 0 -20 7 -20 83 0 85 3 97 27 97 10 0 13 -22 13 -90z m-2509
58 c-1 -5 -1 -39 -1 -78 0 -56 -3 -70 -15 -70 -12 0 -15 16 -15 81 0 67 3 80
16 77 8 -2 15 -6 15 -10z m2429 -68 c0 -73 -2 -80 -20 -80 -18 0 -20 7 -20 80
0 73 2 80 20 80 18 0 20 -7 20 -80z m-2340 -10 l0 -70 -30 0 -30 0 0 70 0 70
30 0 30 0 0 -70z m2280 0 c0 -62 -2 -70 -19 -70 -17 0 -20 9 -23 66 -3 72 -3
74 24 74 16 0 18 -9 18 -70z m-100 -10 c0 -53 -2 -60 -20 -60 -18 0 -20 7 -20
60 0 53 2 60 20 60 18 0 20 -7 20 -60z m-2090 -5 c0 -30 -4 -55 -10 -55 -5 0
-10 25 -10 55 0 30 5 55 10 55 6 0 10 -25 10 -55z m70 -6 c0 -48 -1 -49 -30
-49 -29 0 -30 1 -30 48 0 57 2 61 35 54 23 -4 25 -9 25 -53z m1960 1 c0 -49
-1 -50 -30 -50 -29 0 -30 1 -30 50 0 49 1 50 30 50 29 0 30 -1 30 -50z m-1836
12 c-1 -7 -2 -23 -2 -37 -3 -40 -32 -32 -32 8 0 19 3 37 7 41 10 9 28 1 27
-12z m1676 -27 l0 -35 -61 0 c-60 0 -60 0 -57 28 3 24 8 28 53 33 28 3 53 7
58 7 4 1 7 -14 7 -33z m-1572 -7 c3 -27 2 -28 -42 -28 -45 0 -46 1 -46 31 0
29 1 30 43 27 38 -3 42 -6 45 -30z m171 -1 c35 1 11 -17 -32 -24 -29 -4 -37
-2 -37 9 0 21 12 30 29 22 9 -4 27 -7 40 -7z m1161 -13 c0 -10 -7 -14 -22 -12
-32 5 -35 28 -4 28 17 0 26 -5 26 -16z m-1000 -4 c0 -6 -28 -10 -65 -10 -37 0
-65 4 -65 10 0 6 28 10 65 10 37 0 65 -4 65 -10z m930 0 c0 -6 -32 -10 -75
-10 -43 0 -75 4 -75 10 0 6 32 10 75 10 43 0 75 -4 75 -10z"/>
<path d="M4840 9514 c-14 -2 -86 -8 -160 -13 -142 -10 -298 -31 -415 -58 -38
-8 -90 -19 -115 -23 -56 -10 -157 -36 -235 -61 -33 -11 -70 -19 -82 -19 -12 0
-24 -4 -27 -9 -3 -4 -27 -14 -53 -21 -69 -18 -246 -84 -388 -145 -159 -68
-535 -267 -543 -287 -2 -4 -8 -8 -14 -8 -25 0 -436 -292 -478 -340 -3 -3 -39
-34 -81 -68 -133 -112 -375 -364 -514 -538 -127 -158 -296 -400 -353 -504 -13
-25 -35 -63 -48 -85 -13 -22 -40 -71 -59 -110 -20 -38 -40 -77 -45 -85 -5 -8
-30 -60 -55 -115 -26 -55 -53 -112 -61 -127 -8 -14 -14 -31 -14 -37 0 -6 -11
-35 -25 -65 -14 -30 -25 -61 -25 -68 0 -8 -6 -22 -13 -33 -8 -11 -19 -38 -25
-60 -6 -22 -23 -74 -38 -115 -37 -106 -93 -321 -124 -480 -10 -52 -23 -113
-29 -135 -6 -22 -11 -57 -11 -77 0 -20 -10 -83 -21 -140 -20 -96 -22 -131 -21
-533 0 -267 4 -451 11 -485 6 -30 16 -100 22 -155 10 -90 19 -143 58 -335 31
-148 75 -319 96 -365 7 -16 16 -45 20 -63 4 -18 13 -45 21 -60 8 -15 14 -33
14 -39 0 -13 41 -121 72 -189 10 -22 18 -44 18 -49 0 -9 25 -62 133 -285 55
-114 83 -166 144 -268 12 -21 29 -50 37 -67 9 -16 24 -42 33 -56 10 -14 28
-41 40 -60 31 -50 79 -118 163 -232 125 -170 209 -265 415 -472 152 -153 209
-205 325 -298 47 -37 92 -73 100 -80 8 -7 43 -32 77 -57 35 -25 89 -64 120
-87 32 -24 63 -43 69 -43 6 0 19 -9 29 -20 10 -11 24 -20 30 -20 7 0 19 -7 26
-16 7 -9 22 -20 34 -26 11 -5 38 -20 60 -33 22 -14 51 -30 65 -37 14 -7 39
-22 57 -34 40 -27 237 -124 323 -159 36 -14 84 -35 107 -46 24 -10 49 -19 57
-19 8 0 17 -4 20 -9 3 -5 18 -12 33 -16 16 -3 42 -13 58 -21 41 -19 140 -52
200 -68 28 -7 59 -17 70 -23 11 -6 43 -14 70 -18 28 -3 60 -13 72 -21 12 -8
39 -14 60 -14 21 -1 63 -9 93 -20 30 -11 73 -19 95 -20 22 0 73 -9 113 -20 39
-11 102 -20 140 -20 38 0 115 -8 173 -17 134 -23 610 -25 764 -4 55 7 141 17
190 21 50 5 117 15 150 24 33 9 77 16 98 16 21 0 48 5 59 11 11 6 53 17 92 24
39 8 89 21 111 29 22 8 54 15 70 16 17 0 40 6 51 14 11 8 38 18 59 22 22 4 58
15 80 25 22 10 49 19 60 19 11 0 38 9 60 20 22 11 47 19 55 20 9 0 24 6 35 14
11 7 31 17 45 21 77 23 394 177 515 250 22 13 49 29 60 35 11 6 40 24 65 40
25 16 54 34 65 39 12 5 27 16 34 25 7 9 19 16 26 16 6 0 20 9 30 20 10 11 23
20 30 20 7 0 20 9 30 20 10 11 24 20 31 20 7 0 19 8 26 18 7 9 22 23 33 30 70
44 85 56 234 182 131 112 152 131 301 280 156 155 218 224 300 335 29 39 59
77 67 85 32 33 223 314 223 328 0 5 7 16 16 23 9 7 20 22 25 34 5 11 20 38 34
60 14 22 32 54 39 71 8 17 22 36 30 44 9 7 16 17 16 23 0 6 24 58 54 116 45
89 101 213 161 356 11 27 39 103 75 205 12 36 35 109 71 235 12 39 26 93 31
120 6 28 19 79 29 114 11 35 19 78 19 94 0 16 9 66 19 111 10 44 22 124 25
176 4 52 12 113 18 135 16 57 23 789 9 885 -7 41 -16 116 -22 165 -5 50 -16
119 -24 155 -8 36 -19 97 -25 136 -5 40 -14 83 -19 98 -6 14 -16 56 -22 93 -6
38 -15 73 -19 78 -4 6 -11 26 -14 45 -8 40 -53 195 -66 225 -5 11 -14 38 -20
60 -7 22 -18 54 -25 70 -7 17 -17 44 -21 60 -4 17 -11 35 -15 41 -5 6 -15 28
-23 50 -28 80 -184 402 -236 489 -17 28 -35 60 -40 72 -5 11 -14 24 -20 28 -5
3 -17 21 -25 38 -8 18 -20 41 -27 52 -45 70 -72 111 -77 115 -3 3 -10 12 -16
21 -19 32 -90 134 -103 149 -7 8 -43 54 -80 101 -37 47 -74 93 -82 101 -8 8
-49 54 -90 102 -78 91 -329 336 -415 406 -61 49 -293 224 -353 265 -127 88
-400 245 -567 325 -71 34 -137 66 -146 70 -8 4 -47 20 -85 34 -38 15 -87 35
-109 45 -22 10 -60 24 -85 32 -25 7 -49 16 -55 19 -5 4 -25 10 -43 14 -19 3
-48 12 -65 20 -18 8 -45 16 -62 19 -16 2 -50 11 -75 20 -66 22 -167 48 -230
57 -30 5 -77 15 -105 24 -27 9 -68 16 -89 16 -22 0 -89 9 -150 19 -148 26
-406 42 -651 40 -110 -1 -211 -4 -225 -5z m735 -114 c33 -5 96 -14 140 -20
161 -22 263 -41 355 -67 30 -8 78 -18 105 -22 28 -4 67 -15 89 -24 21 -9 49
-17 61 -17 13 0 42 -9 66 -20 24 -11 53 -20 65 -20 11 0 39 -9 62 -20 22 -11
48 -20 56 -20 9 0 31 -9 51 -20 20 -11 42 -20 50 -20 8 0 30 -9 50 -20 20 -11
41 -20 48 -20 7 0 30 -9 52 -19 334 -163 462 -232 557 -298 26 -18 50 -33 53
-33 8 0 89 -53 96 -63 4 -5 15 -14 26 -20 54 -32 269 -193 327 -246 334 -303
632 -639 771 -869 15 -26 86 -134 106 -164 11 -15 19 -29 19 -32 0 -2 19 -37
41 -77 47 -83 136 -259 168 -334 12 -27 30 -68 41 -90 10 -22 24 -57 30 -77 6
-21 16 -40 21 -43 5 -4 9 -15 9 -26 0 -11 9 -39 20 -61 11 -23 20 -50 20 -60
0 -9 8 -37 19 -60 25 -58 61 -173 61 -195 0 -10 9 -42 20 -71 11 -29 20 -67
20 -85 1 -17 9 -57 20 -87 11 -30 20 -73 20 -95 0 -22 9 -73 20 -114 11 -41
20 -98 20 -127 0 -28 8 -87 17 -130 26 -117 26 -828 0 -953 -9 -46 -17 -109
-17 -140 0 -31 -9 -92 -20 -136 -11 -44 -20 -92 -20 -107 0 -14 -9 -55 -20
-90 -11 -34 -20 -74 -20 -87 0 -24 -27 -124 -57 -211 -9 -25 -18 -58 -20 -75
-3 -16 -12 -46 -20 -65 -9 -19 -20 -48 -24 -65 -11 -42 -39 -123 -60 -170 -45
-101 -59 -135 -59 -141 0 -8 -41 -95 -97 -209 -49 -100 -106 -202 -121 -217
-6 -6 -12 -16 -12 -22 0 -8 -45 -80 -119 -189 -14 -21 -34 -51 -43 -67 -114
-194 -517 -644 -740 -826 -45 -38 -105 -88 -133 -113 -27 -24 -68 -56 -89 -70
-21 -14 -46 -30 -54 -36 -8 -5 -29 -22 -46 -37 -17 -16 -35 -28 -41 -28 -6 0
-28 -14 -49 -32 -63 -51 -407 -258 -431 -258 -7 0 -23 -8 -36 -17 -23 -17 -58
-35 -164 -83 -27 -12 -67 -31 -88 -41 -22 -11 -45 -19 -53 -19 -7 0 -34 -9
-59 -20 -25 -11 -65 -29 -90 -40 -25 -11 -54 -20 -63 -20 -10 0 -37 -9 -60
-20 -22 -11 -48 -20 -56 -20 -8 0 -38 -9 -66 -20 -28 -11 -64 -20 -81 -20 -16
0 -43 -7 -59 -15 -16 -8 -58 -19 -93 -24 -36 -5 -74 -14 -85 -20 -11 -6 -53
-14 -94 -17 -40 -4 -90 -13 -112 -21 -21 -7 -102 -18 -180 -23 -77 -6 -168
-15 -201 -20 -77 -13 -457 -13 -521 -1 -27 5 -120 14 -207 21 -86 6 -169 15
-185 21 -15 6 -64 15 -110 20 -46 5 -100 16 -119 24 -20 8 -49 15 -66 15 -29
0 -118 23 -217 56 -25 9 -61 19 -80 24 -44 10 -122 37 -178 61 -23 11 -48 19
-55 19 -7 0 -32 9 -55 20 -22 11 -46 20 -51 20 -11 0 -65 24 -185 82 -44 21
-84 38 -90 38 -6 0 -22 9 -36 20 -14 11 -30 20 -36 20 -12 0 -261 140 -305
171 -15 10 -30 19 -33 19 -3 0 -38 23 -78 51 -40 27 -103 71 -140 96 -37 25
-79 56 -92 68 -14 13 -53 44 -88 71 -35 26 -70 55 -79 63 -9 9 -47 43 -84 76
-91 80 -316 310 -405 415 -136 158 -362 477 -449 634 -79 142 -158 297 -202
396 -12 25 -29 63 -40 85 -10 22 -19 47 -19 55 0 8 -9 30 -20 48 -11 18 -20
39 -20 47 0 9 -8 34 -18 58 -27 60 -55 141 -81 227 -12 41 -31 103 -42 137
-10 34 -19 72 -19 85 0 13 -9 52 -20 86 -11 35 -20 78 -20 95 0 18 -9 66 -20
107 -11 41 -20 97 -20 123 0 26 -8 83 -17 125 -16 67 -18 135 -18 537 0 404 2
469 17 532 10 40 18 96 18 125 0 29 9 85 20 123 11 38 20 84 20 101 0 17 9 57
20 90 11 32 20 70 20 83 0 24 27 122 57 211 8 25 18 56 20 70 3 14 13 44 24
67 10 24 19 50 19 58 0 9 9 33 20 55 11 22 20 46 20 54 0 9 9 30 20 48 11 18
20 40 20 48 0 8 9 34 20 57 12 24 29 62 40 85 51 117 174 353 196 379 8 8 14
19 14 24 0 5 10 25 23 44 13 20 54 83 92 141 65 99 200 285 234 322 26 28 45
50 67 79 62 83 278 308 390 405 116 101 255 214 314 256 167 117 256 177 262
178 4 0 26 13 50 29 73 49 401 219 513 266 22 9 58 25 80 36 22 10 48 19 57
19 10 0 32 9 50 20 18 11 41 20 51 20 10 0 37 9 59 20 23 11 50 20 59 20 10 0
38 9 64 20 26 11 56 20 68 20 12 0 46 9 75 20 29 11 65 20 80 20 15 1 52 9 82
20 30 11 71 19 91 20 20 0 58 7 85 15 27 8 93 20 147 25 54 6 110 16 125 21
64 26 834 32 997 9z"/>
<path d="M5029 9263 c-9 -10 -42 -70 -73 -133 -32 -63 -62 -119 -67 -124 -5
-6 -15 4 -24 25 -9 19 -29 54 -45 79 -16 25 -43 68 -60 96 -17 29 -40 54 -51
57 -43 11 -158 -5 -175 -24 -22 -24 -13 -46 55 -132 28 -35 84 -115 126 -177
84 -125 95 -158 95 -302 0 -110 -2 -108 90 -108 48 0 82 4 86 11 4 6 6 72 5
145 l-2 134 33 58 c19 31 39 68 46 82 8 14 21 39 30 55 10 17 37 66 61 110 24
44 50 88 58 97 8 9 13 27 11 40 -3 22 -7 23 -94 26 -77 2 -93 0 -105 -15z"/>
<path d="M5535 9226 c-115 -33 -206 -121 -248 -239 -33 -91 -34 -147 -6 -234
38 -118 92 -178 213 -237 53 -26 67 -29 166 -28 99 0 112 2 156 28 64 36 94
63 94 85 0 20 -100 109 -121 109 -8 0 -25 -9 -39 -20 -38 -30 -164 -28 -202 3
-61 50 -78 85 -78 163 0 62 4 79 25 110 14 21 35 44 48 53 12 8 25 19 29 25 3
5 39 10 80 10 62 0 79 -3 108 -24 19 -13 41 -32 48 -42 21 -29 110 -17 161 22
l24 17 -39 59 c-82 123 -266 185 -419 140z"/>
<path d="M4300 9210 c-8 -5 -46 -14 -85 -21 -38 -6 -78 -15 -87 -20 -10 -5
-48 -16 -85 -24 -122 -25 -216 -54 -225 -67 -8 -14 -3 -50 16 -108 11 -34 13
-35 62 -33 28 1 71 9 94 17 24 8 47 13 52 10 4 -3 8 -21 8 -41 0 -20 9 -66 19
-102 32 -111 53 -194 60 -246 4 -27 16 -68 27 -90 l20 -40 69 3 c38 2 77 8 87
13 24 13 23 51 -2 129 -11 34 -20 72 -20 84 0 12 -9 47 -20 79 -11 31 -20 69
-20 84 -1 16 -11 59 -24 96 l-24 68 25 10 c13 5 30 9 36 10 7 0 37 8 67 18 61
20 68 33 52 90 -6 20 -14 48 -17 64 -4 23 -10 27 -38 27 -17 0 -39 -5 -47 -10z"/>
<path d="M6336 9020 c-20 -28 -54 -71 -75 -93 -51 -57 -189 -226 -284 -349
-88 -114 -88 -116 0 -150 56 -21 98 -23 112 -5 6 6 23 28 40 47 l29 35 54 -24
c29 -13 70 -26 90 -31 20 -4 49 -15 63 -24 21 -14 25 -24 25 -65 0 -33 5 -53
18 -63 32 -29 81 -48 121 -48 36 0 41 3 47 27 4 15 4 180 0 367 -7 358 -11
386 -54 386 -10 0 -27 7 -39 15 -12 8 -41 18 -66 21 -43 6 -44 6 -81 -46z m54
-316 c0 -95 0 -96 -22 -89 -13 4 -40 9 -60 12 -21 3 -38 9 -38 15 0 5 13 26
28 46 16 20 41 54 56 75 15 20 29 37 32 37 2 0 4 -43 4 -96z"/>
<path d="M3600 9011 c-19 -10 -55 -27 -80 -38 -57 -27 -207 -96 -240 -111 -14
-7 -32 -16 -40 -20 -8 -5 -33 -18 -55 -29 -56 -29 -63 -44 -37 -81 12 -16 22
-36 22 -44 0 -43 52 -48 125 -13 69 34 90 33 105 -7 6 -18 22 -55 35 -83 13
-27 34 -72 46 -100 11 -27 29 -68 39 -90 50 -110 59 -132 65 -152 9 -31 33
-36 72 -13 19 11 40 20 46 20 7 0 27 13 46 29 32 28 33 30 19 57 -14 27 -32
67 -80 174 -11 25 -28 62 -39 82 -10 20 -19 42 -19 48 0 6 -8 23 -17 37 -10
15 -23 41 -29 58 -6 16 -14 37 -18 46 -6 13 3 20 41 34 26 9 62 25 78 34 27
16 30 22 27 62 -4 43 -46 119 -67 119 -5 0 -26 -9 -45 -19z"/>
<path d="M6974 8756 c-59 -28 -120 -99 -130 -153 -4 -19 -3 -57 0 -85 7 -53
46 -114 126 -200 60 -64 68 -120 18 -126 -52 -6 -125 57 -172 151 -11 20 -22
37 -26 37 -3 0 -25 -9 -48 -20 -22 -11 -45 -20 -50 -20 -5 0 -19 -11 -32 -25
-21 -23 -22 -28 -11 -65 12 -41 98 -136 146 -162 109 -60 135 -71 186 -75 71
-7 117 8 165 54 116 109 111 226 -16 364 -88 94 -104 155 -41 152 41 -2 99
-46 126 -96 25 -46 48 -47 116 -9 54 30 64 47 50 84 -10 26 -122 131 -163 152
-12 7 -32 17 -43 23 -23 13 -122 43 -139 43 -6 0 -34 -11 -62 -24z"/>
<path d="M2900 8632 c-68 -46 -73 -68 -28 -139 137 -215 161 -255 176 -288 6
-12 17 -27 26 -34 9 -7 16 -17 16 -22 0 -10 50 -90 61 -99 3 -3 14 -20 23 -37
22 -44 53 -43 116 5 63 47 70 71 36 122 -14 22 -26 42 -26 45 0 3 -16 28 -36
56 -19 28 -38 58 -42 67 -4 9 -32 55 -63 102 -31 47 -81 124 -112 173 -37 56
-63 87 -75 86 -9 0 -42 -17 -72 -37z"/>
<path d="M2546 8408 l-68 -51 7 -169 c4 -92 5 -168 2 -168 -2 0 -33 36 -68 81
-34 44 -71 85 -80 89 -20 11 -78 -27 -122 -79 -31 -37 -29 -43 34 -111 23 -25
64 -72 92 -105 96 -112 272 -310 287 -322 26 -22 45 -14 99 41 l54 54 -48 61
c-26 34 -51 61 -55 61 -12 0 -26 52 -22 78 4 27 24 28 99 3 32 -11 78 -22 103
-26 24 -3 49 -10 56 -16 6 -5 29 -10 50 -11 34 -1 43 4 85 52 29 33 45 59 42
69 -10 26 -35 51 -53 51 -9 0 -20 3 -24 7 -10 10 -96 32 -129 33 -16 0 -37 4
-47 10 -10 5 -53 16 -96 23 l-77 13 2 178 c3 234 -4 243 -123 154z"/>
<path d="M7529 8338 c-41 -51 -85 -103 -98 -117 -13 -15 -60 -71 -104 -126
-45 -55 -87 -106 -94 -113 -33 -34 -63 -81 -63 -98 0 -24 98 -113 126 -114 14
0 45 31 100 99 73 93 97 114 106 93 2 -5 38 -37 81 -72 43 -35 76 -69 75 -76
-2 -7 -40 -55 -85 -108 -46 -53 -83 -102 -83 -110 0 -16 124 -126 142 -126 6
0 26 17 43 38 18 20 86 98 151 172 66 75 138 158 160 185 23 28 58 68 78 89
20 22 36 43 36 47 0 13 -124 119 -140 119 -14 0 -160 -148 -160 -162 0 -17
-24 -6 -58 26 -21 19 -61 56 -89 83 l-53 48 35 40 c19 22 41 47 48 55 34 38
67 88 67 102 0 25 -103 118 -130 118 -9 0 -50 -41 -91 -92z"/>
<path d="M4600 8341 c-95 -22 -166 -74 -205 -150 -30 -61 -27 -98 12 -145 24
-28 24 -31 7 -43 -10 -7 -28 -13 -40 -13 -12 0 -39 -8 -61 -18 -21 -10 -58
-28 -83 -39 -104 -46 -159 -74 -170 -88 -7 -8 -16 -15 -21 -15 -9 0 -64 -38
-122 -83 l-36 -29 -23 22 c-24 23 -124 90 -134 90 -3 0 -17 9 -31 20 -14 11
-33 20 -41 20 -9 0 -23 6 -31 13 -9 8 -52 26 -96 40 -61 21 -100 27 -163 27
l-84 0 -74 -75 c-41 -42 -74 -81 -74 -88 0 -7 -9 -23 -20 -37 -11 -14 -20 -32
-20 -40 0 -9 -9 -33 -20 -55 -11 -22 -20 -47 -20 -56 0 -9 -7 -30 -16 -47 -8
-17 -18 -48 -20 -69 -3 -21 -12 -56 -20 -77 -9 -22 -19 -82 -24 -135 -5 -53
-14 -125 -19 -161 -14 -84 -13 -277 0 -360 5 -36 14 -110 19 -165 5 -55 16
-122 24 -150 9 -27 16 -65 16 -82 0 -18 9 -56 20 -85 11 -29 20 -63 20 -76 0
-13 9 -42 20 -64 25 -52 25 -69 0 -110 -11 -18 -20 -41 -20 -50 0 -10 -9 -32
-20 -50 -11 -18 -20 -40 -20 -48 0 -9 -9 -33 -20 -55 -11 -22 -20 -49 -20 -61
0 -11 -7 -34 -15 -51 -8 -16 -19 -63 -25 -103 -6 -41 -14 -78 -18 -82 -4 -4
-30 -10 -57 -14 -93 -11 -185 -44 -197 -70 -21 -45 1 -54 128 -54 l114 0 0
-73 c0 -40 6 -97 14 -127 7 -30 17 -76 20 -102 7 -46 6 -48 -21 -53 -70 -15
-222 -87 -252 -119 -14 -15 -21 -33 -19 -48 3 -20 8 -23 43 -21 56 2 124 17
165 35 47 22 127 29 140 13 5 -6 24 -38 41 -69 58 -110 145 -224 244 -319 64
-62 219 -182 274 -213 107 -61 106 -53 25 -132 -38 -37 -87 -89 -109 -116
-100 -122 -175 -222 -175 -233 0 -7 -4 -13 -8 -13 -5 0 -16 -15 -26 -32 -9
-18 -28 -51 -41 -73 -13 -22 -38 -69 -56 -105 -17 -36 -40 -81 -50 -101 -11
-20 -19 -43 -19 -51 0 -7 -9 -31 -20 -53 -11 -22 -20 -56 -20 -77 0 -37 -19
-65 -21 -31 -5 64 5 197 19 248 12 45 16 108 17 250 0 180 -1 194 -27 275 -35
106 -89 211 -150 289 -47 60 -161 161 -208 185 -14 7 -34 17 -45 23 -82 45
-115 53 -229 53 -102 0 -120 -3 -183 -29 -126 -52 -227 -131 -288 -226 -31
-49 -75 -188 -75 -236 1 -37 44 -160 73 -206 29 -47 90 -98 162 -138 112 -62
146 -90 171 -137 23 -46 24 -55 24 -254 l0 -206 53 -76 c28 -42 75 -100 102
-129 28 -28 75 -80 105 -115 99 -114 219 -234 247 -249 15 -8 43 -31 61 -52
26 -28 38 -35 47 -27 8 7 15 7 19 1 3 -5 0 -12 -6 -14 -9 -4 -5 -12 12 -26 26
-21 50 -27 50 -13 0 5 11 14 25 20 20 9 25 9 25 -3 0 -8 -10 -23 -21 -34 l-21
-20 26 -24 c15 -14 42 -32 60 -41 18 -9 39 -22 46 -31 14 -17 50 -21 50 -5 0
19 32 10 37 -10 3 -11 12 -20 19 -20 16 0 19 -16 4 -25 -27 -17 -6 -45 68 -94
43 -28 85 -51 93 -51 23 0 159 -69 159 -81 0 -6 7 -9 15 -5 8 3 31 -5 50 -18
25 -17 48 -24 81 -23 28 0 49 -5 54 -13 4 -7 23 -13 41 -12 41 1 135 -23 163
-42 17 -11 26 -11 38 -2 18 14 18 53 0 65 -8 4 -12 15 -10 24 2 9 -6 23 -17
31 -20 15 -20 15 1 16 26 0 49 -24 38 -41 -4 -7 -3 -9 3 -6 5 4 23 -8 40 -26
16 -18 44 -45 63 -60 34 -29 160 -87 189 -87 9 0 27 -6 41 -13 17 -9 64 -12
155 -11 111 3 134 0 160 -16 16 -10 61 -30 99 -44 64 -24 80 -26 243 -26 136
0 195 4 262 19 47 11 118 24 156 31 192 31 475 82 570 103 74 17 93 12 97 -22
4 -39 40 -38 161 3 56 20 110 36 120 36 9 0 42 11 72 25 55 24 56 25 50 58 -6
28 -2 37 21 58 81 70 145 144 168 195 51 112 73 278 75 566 l1 167 38 6 c20 4
55 12 77 20 22 7 57 15 78 18 21 3 52 13 69 21 17 9 38 16 46 16 13 0 69 26
112 51 8 5 29 16 46 24 17 7 36 21 44 29 7 9 17 16 23 16 40 0 292 238 356
337 38 59 38 59 143 68 43 4 80 10 83 15 3 4 22 11 42 14 56 10 232 101 286
147 65 56 135 150 156 209 10 28 21 53 24 57 12 11 8 183 -5 206 -6 12 -15 63
-19 112 -13 157 -84 267 -214 330 -61 30 -81 35 -142 35 -40 0 -74 4 -78 9
-14 24 -97 70 -160 90 -89 27 -152 26 -249 -4 -153 -49 -290 -165 -412 -347
-109 -163 -183 -233 -298 -281 -42 -17 -73 -21 -176 -21 -112 -1 -134 2 -212
28 -49 15 -88 31 -87 35 0 3 35 23 77 44 107 52 247 155 362 264 94 89 218
239 228 276 2 9 7 17 11 17 14 0 111 206 111 236 1 10 7 30 15 44 8 14 14 36
15 48 0 23 3 24 53 19 82 -7 247 -35 315 -52 56 -15 63 -15 87 1 25 16 32 39
17 59 -27 40 -146 92 -237 105 -33 5 -95 14 -137 21 l-78 13 0 40 c0 23 -3 77
-6 122 l-7 80 29 11 c37 13 208 43 297 52 68 6 87 17 87 52 0 53 -136 78 -297
54 -54 -8 -104 -17 -112 -20 -23 -9 -41 16 -41 57 0 21 -9 58 -20 80 -11 23
-20 52 -20 65 0 13 -9 43 -20 65 -11 23 -20 52 -20 65 0 12 -9 37 -20 55 -11
18 -20 43 -20 54 0 12 -10 34 -22 50 -29 36 -28 111 2 169 11 21 20 49 20 61
0 12 9 43 20 69 11 26 20 61 20 78 0 18 8 52 17 77 9 25 20 86 24 135 5 50 13
122 18 160 13 93 13 254 0 340 -6 39 -14 104 -18 145 -4 41 -15 95 -24 120 -9
25 -17 57 -17 72 0 15 -9 43 -20 63 -11 20 -20 44 -20 54 0 34 -88 189 -126
222 -67 59 -153 80 -224 55 -25 -9 -54 -16 -65 -16 -11 0 -38 -9 -60 -19 -22
-11 -51 -24 -65 -30 -14 -6 -43 -22 -65 -36 -22 -13 -47 -27 -55 -31 -8 -4
-43 -30 -77 -56 l-63 -48 0 38 c0 22 -14 72 -30 112 -67 162 -170 249 -375
318 -78 26 -85 27 -325 27 -164 -1 -258 -5 -285 -13 -22 -7 -72 -19 -112 -27
l-71 -14 -44 41 c-71 66 -130 90 -228 94 -47 2 -101 -1 -120 -5z m160 -415 c0
-3 -4 -8 -10 -11 -5 -3 -10 -1 -10 4 0 6 5 11 10 11 6 0 10 -2 10 -4z m1999
-126 c39 -40 85 -124 94 -170 3 -14 12 -45 21 -70 47 -139 72 -513 45 -680 -5
-36 -16 -105 -24 -155 -7 -49 -20 -110 -29 -135 -9 -25 -18 -62 -21 -83 -7
-44 -21 -44 -44 -1 -9 16 -25 43 -37 59 -11 17 -23 37 -26 45 -3 8 -49 63
-102 122 -53 59 -96 111 -96 115 0 5 16 19 36 33 45 30 84 90 84 130 0 36 -26
81 -65 111 -30 24 -82 37 -187 46 -50 4 -68 9 -68 19 0 23 277 293 359 350 24
17 27 52 7 79 -21 29 -81 24 -131 -9 -22 -15 -42 -30 -45 -34 -3 -4 -18 -16
-33 -26 -57 -35 -258 -240 -306 -310 -47 -69 -91 -157 -91 -180 0 -7 13 -25
29 -40 34 -33 45 -32 161 9 89 32 169 30 204 -4 l20 -21 -24 -25 c-13 -14 -31
-25 -40 -25 -9 0 -25 -9 -35 -20 -10 -11 -22 -20 -27 -20 -15 0 -48 -39 -48
-57 0 -9 19 -35 43 -58 49 -47 140 -151 147 -168 4 -12 57 -85 70 -97 6 -6 28
-44 52 -90 19 -37 32 -58 61 -102 9 -14 17 -31 17 -38 0 -6 9 -23 20 -37 11
-14 20 -32 20 -40 0 -8 9 -26 20 -40 11 -14 20 -35 20 -45 0 -11 9 -31 20 -45
36 -46 27 -65 -43 -91 -88 -33 -143 -62 -185 -98 -34 -29 -36 -33 -25 -57 21
-46 81 -67 221 -78 70 -6 129 -12 131 -15 4 -4 41 -104 41 -111 0 -2 -30 -19
-67 -38 -38 -20 -86 -47 -108 -60 -22 -13 -49 -29 -60 -34 -68 -34 -117 -113
-80 -127 10 -4 32 0 49 9 17 9 45 19 61 23 17 4 44 16 60 26 17 10 37 18 45
18 8 0 34 10 57 22 57 30 64 20 66 -88 l2 -89 -50 -3 c-27 -1 -75 -7 -105 -13
-30 -6 -73 -13 -95 -16 -44 -6 -75 -27 -75 -53 0 -34 22 -40 140 -40 154 0
164 -3 157 -48 -4 -19 -13 -42 -22 -52 -8 -9 -15 -23 -15 -31 -1 -22 -51 -116
-102 -193 -97 -144 -299 -331 -438 -405 -25 -13 -56 -33 -69 -43 -13 -10 -30
-18 -38 -18 -8 0 -21 -7 -30 -15 -8 -9 -28 -19 -44 -22 -16 -3 -29 -9 -29 -14
0 -4 -19 -13 -42 -19 -22 -7 -47 -17 -54 -24 -7 -7 -30 -16 -52 -20 -22 -3
-45 -13 -52 -21 -7 -8 -27 -15 -44 -15 -17 0 -40 -6 -51 -14 -11 -7 -46 -21
-79 -31 -68 -21 -119 -54 -124 -78 -2 -10 10 -29 29 -45 29 -24 42 -27 109
-29 63 -1 85 2 123 22 26 13 56 21 66 18 12 -3 31 4 47 16 20 15 30 18 40 10
15 -12 84 -153 84 -172 0 -7 4 -17 9 -22 9 -10 31 -94 31 -117 0 -10 -28 -13
-118 -14 -69 0 -126 -5 -139 -12 -25 -14 -187 -48 -323 -68 -52 -8 -108 -18
-125 -23 -16 -6 -57 -13 -90 -16 -33 -4 -83 -13 -110 -20 -28 -8 -78 -17 -110
-21 -33 -3 -96 -15 -140 -25 -44 -10 -94 -19 -111 -19 -17 0 -57 -9 -89 -20
-32 -11 -69 -20 -82 -20 -22 0 -80 -20 -153 -53 -14 -7 -55 -42 -92 -79 -62
-62 -69 -74 -93 -152 -15 -48 -25 -104 -24 -129 2 -24 0 -48 -4 -54 -13 -20
-109 -2 -167 32 -30 17 -73 41 -95 52 -38 18 -40 22 -37 59 2 21 12 69 23 105
10 36 19 77 19 89 0 13 5 38 12 56 9 27 9 37 -6 58 -9 14 -22 26 -30 26 -13 0
-68 -76 -94 -130 -6 -14 -16 -32 -21 -40 -5 -8 -19 -46 -31 -85 l-22 -70 -97
0 c-91 0 -101 -2 -138 -28 -23 -16 -44 -40 -48 -54 -11 -44 8 -53 114 -53 72
0 109 -5 149 -20 29 -11 60 -20 71 -20 10 0 46 -15 80 -32 88 -46 98 -52 121
-73 17 -15 43 -18 215 -20 109 -2 201 -7 208 -13 6 -5 29 -13 51 -16 55 -10
151 -63 193 -107 33 -34 56 -80 70 -137 6 -27 3 -27 -39 -3 -38 22 -164 37
-227 26 -32 -5 -42 -12 -47 -31 -9 -37 29 -74 76 -74 49 0 181 -67 196 -100 7
-14 17 -37 24 -51 12 -26 9 -95 -6 -169 -8 -39 -44 -89 -80 -108 -22 -11 -27
-9 -66 34 -70 76 -177 107 -228 66 -27 -22 -19 -46 23 -63 18 -6 49 -23 70
-37 34 -23 38 -29 35 -61 -2 -25 -10 -39 -25 -47 -13 -6 -31 -18 -40 -27 -19
-16 -43 -19 -153 -19 -119 1 -154 6 -187 30 -17 12 -38 22 -46 22 -18 0 -117
106 -117 125 0 7 -12 27 -26 44 -21 25 -33 31 -66 31 -32 0 -39 3 -34 15 4 12
-2 15 -27 14 -18 0 -26 -3 -19 -6 6 -2 12 -9 12 -14 0 -12 -147 -12 -155 1 -3
6 -24 10 -45 10 -22 0 -45 6 -51 13 -7 7 -25 11 -41 9 -15 -2 -34 0 -41 5 -6
5 -32 15 -57 22 -61 18 -128 51 -167 81 -18 14 -46 36 -63 49 -21 16 -28 27
-21 34 7 7 22 -1 48 -26 20 -21 43 -37 50 -37 7 0 13 -3 13 -7 0 -5 24 -19 53
-32 28 -13 60 -28 69 -32 24 -12 41 -11 33 1 -3 5 3 10 14 10 28 0 39 44 18
78 -5 6 -16 12 -25 12 -16 -1 -16 -1 1 -11 21 -12 22 -29 3 -29 -8 0 -18 10
-22 22 -8 26 -106 122 -147 144 -15 8 -38 31 -52 52 -13 20 -38 56 -55 80 -16
23 -30 45 -30 49 0 11 -52 118 -71 145 -11 14 -19 43 -19 65 -1 38 -1 38 -15
13 -8 -14 -15 -41 -16 -60 -1 -19 -5 -48 -10 -65 -5 -18 -6 23 -3 100 3 72 9
141 13 155 5 14 14 57 21 95 19 109 50 195 71 195 5 0 28 12 52 27 73 46 132
65 327 107 86 19 160 54 160 76 0 14 -60 60 -77 60 -5 0 -21 7 -37 15 -32 17
-115 42 -193 58 -54 11 -61 18 -43 40 5 7 31 39 56 72 70 89 174 193 217 215
46 24 44 25 43 -2 -1 -20 7 -25 54 -35 30 -7 96 -21 145 -33 87 -20 148 -30
303 -50 96 -13 232 -13 232 0 0 6 16 10 35 10 19 0 35 -4 35 -10 0 -5 -9 -10
-20 -10 -11 0 -20 -4 -20 -10 0 -16 49 -23 65 -10 15 13 39 4 30 -11 -10 -14
0 -11 23 10 26 22 28 37 5 45 -14 6 -14 9 5 26 22 21 52 27 52 10 0 -5 -8 -13
-17 -19 -27 -15 -7 -26 22 -13 36 16 116 16 112 0 -1 -9 11 -12 43 -10 32 2
41 0 30 -7 -8 -5 -12 -12 -10 -15 11 -10 378 -21 425 -12 28 5 79 9 114 7 43
-1 69 3 80 13 9 7 52 19 96 26 98 15 121 16 160 6 l30 -7 -27 21 c-16 12 -28
27 -28 34 0 6 -13 20 -30 29 -16 10 -30 24 -30 31 0 8 -7 17 -16 20 -8 3 -13
10 -9 15 9 15 -13 23 -32 12 -10 -6 -13 -11 -8 -11 6 0 -3 -12 -20 -26 -16
-14 -31 -20 -33 -14 -2 5 7 19 20 30 20 17 21 19 5 20 -10 0 -39 -5 -63 -11
-45 -12 -46 -13 -40 -44 6 -32 5 -33 -31 -37 -46 -5 -94 3 -93 17 1 6 9 9 18
8 9 -1 35 4 57 12 36 12 18 13 -182 14 -160 1 -223 -2 -223 -10 0 -7 -8 -9
-22 -4 -13 4 -44 9 -70 12 -40 4 -48 2 -48 -11 0 -17 -17 -20 -44 -10 -24 9
-19 21 12 32 24 9 25 10 8 17 -13 6 -33 1 -62 -14 -40 -22 -64 -22 -64 -1 0 5
7 7 15 4 8 -3 22 1 30 10 15 15 14 16 -8 16 -13 0 -54 11 -90 24 -61 22 -117
25 -117 5 0 -17 23 -21 46 -8 19 10 27 10 36 1 7 -7 20 -12 30 -12 36 0 17
-17 -33 -28 -31 -8 -57 -9 -67 -3 -10 5 -28 7 -42 5 -33 -5 -56 14 -64 54 -6
23 -4 32 6 32 10 0 9 3 -2 10 -10 6 -20 3 -33 -11 -23 -25 -32 -24 -55 6 -16
20 -21 22 -26 10 -3 -9 0 -15 9 -15 8 0 15 -9 15 -19 0 -11 9 -22 19 -26 27
-8 34 -34 17 -60 -16 -24 -12 -37 9 -29 16 6 29 -26 16 -39 -5 -5 -18 -6 -28
-2 -10 4 -90 9 -178 10 -163 2 -199 9 -250 49 -20 15 -20 15 2 16 12 0 47 -11
76 -24 49 -21 66 -23 177 -21 107 3 126 5 137 21 28 37 -2 99 -47 99 -8 0 -37
8 -65 17 -27 9 -67 19 -87 23 -21 3 -38 10 -38 15 0 6 -11 10 -24 10 -14 0
-27 4 -30 9 -3 4 13 8 35 8 22 0 42 -4 45 -8 3 -5 13 -9 23 -9 14 0 17 6 13
31 -4 27 -8 30 -34 27 -16 -1 -32 2 -36 8 -4 6 -17 14 -30 18 -24 8 -34 -6
-36 -47 -1 -29 -30 -33 -53 -8 -10 10 -36 22 -58 26 -22 4 -47 13 -55 20 -8 7
-29 16 -47 19 -17 4 -34 14 -37 22 -3 8 -16 14 -30 14 -14 0 -31 6 -38 13 -7
7 -28 19 -45 26 -37 15 -43 31 -13 31 11 0 20 -4 20 -8 0 -12 68 -34 80 -27 6
3 20 3 31 0 16 -5 18 -9 9 -15 -9 -6 -1 -14 28 -29 48 -24 122 -43 122 -30 0
5 7 9 16 9 33 0 5 24 -56 48 -36 13 -81 33 -100 44 -19 10 -55 28 -80 40 -25
11 -71 34 -103 50 -50 26 -58 27 -63 13 -10 -24 11 -41 31 -25 13 11 15 9 15
-15 0 -23 2 -26 15 -15 18 15 30 7 21 -15 -10 -27 -37 -30 -55 -7 -9 12 -40
34 -70 49 -30 16 -56 34 -59 41 -5 17 16 15 34 -3 17 -16 44 -20 44 -6 0 18
-44 63 -81 81 -47 24 -57 25 -61 3 -4 -22 -112 77 -148 136 -14 22 -31 41 -37
41 -7 0 -13 4 -13 8 0 5 -18 37 -41 72 -22 34 -38 64 -35 67 15 15 100 27 246
34 212 10 274 23 286 61 7 22 -19 50 -64 68 -32 14 -369 13 -412 -1 -77 -24
-100 -27 -107 -16 -17 27 -40 244 -30 271 5 12 14 13 64 2 32 -7 92 -19 133
-25 41 -7 83 -17 92 -22 10 -5 26 -9 37 -9 24 0 212 -59 227 -72 16 -12 64 11
64 32 0 28 -122 130 -156 130 -10 0 -25 7 -34 15 -10 9 -35 18 -56 21 -22 3
-55 13 -74 22 -19 8 -64 18 -100 22 -36 4 -78 12 -93 18 -16 7 -42 12 -59 12
-23 0 -29 4 -24 16 3 9 6 28 6 42 0 46 13 56 52 43 50 -16 212 -14 298 4 83
17 141 44 183 83 41 39 36 67 -20 102 -26 17 -52 30 -59 30 -6 0 -33 8 -60 19
-91 34 -159 55 -219 66 -56 11 -60 13 -58 38 1 14 8 41 16 59 8 18 24 60 37
93 39 101 147 314 175 345 8 9 15 20 15 24 0 13 116 159 159 201 52 50 56 88
10 113 -66 37 -136 120 -125 149 5 13 17 15 71 9 67 -7 138 -37 211 -88 l42
-30 40 26 c45 28 59 64 46 119 -4 17 -8 41 -9 52 -4 42 -18 85 -31 96 -8 6
-14 17 -14 24 0 19 -61 135 -71 135 -5 0 -9 6 -9 13 0 8 -9 22 -20 32 -11 10
-20 23 -20 29 0 6 -23 36 -51 66 -28 30 -67 74 -87 97 -21 24 -40 43 -44 43
-4 0 -31 18 -60 40 -68 52 -120 67 -154 45 -46 -30 -33 -62 64 -162 145 -150
232 -257 282 -348 12 -22 26 -44 31 -50 16 -16 10 -26 -10 -15 -11 5 -36 10
-56 10 -20 0 -57 5 -81 11 -73 19 -147 -3 -184 -55 -19 -25 -30 -52 -30 -74 0
-45 42 -130 85 -172 19 -18 35 -39 35 -44 0 -6 -24 -36 -53 -66 -63 -67 -163
-210 -188 -270 -6 -14 -16 -32 -24 -40 -7 -8 -15 -25 -17 -38 -5 -37 -23 -30
-30 13 -3 22 -11 58 -17 80 -6 22 -16 74 -21 115 -6 41 -14 100 -19 130 -27
156 2 666 43 763 7 18 16 50 20 72 4 22 13 54 20 70 7 17 19 43 25 59 23 56
82 134 112 149 26 12 39 13 79 2 56 -15 240 -104 240 -116 0 -5 6 -9 13 -9 8
0 22 -9 32 -20 10 -11 22 -20 28 -20 11 0 108 -79 120 -97 4 -7 21 -20 38 -28
34 -18 349 -328 349 -344 0 -6 10 -17 23 -26 21 -14 27 -13 65 5 22 11 47 20
54 20 8 0 24 7 36 16 27 19 39 12 67 -43 23 -44 102 -146 172 -220 39 -42 56
-53 80 -53 48 0 58 21 58 129 0 74 -6 113 -24 171 -13 41 -28 81 -34 87 -12
17 8 24 68 26 44 2 47 1 59 -33 7 -19 26 -64 43 -100 31 -69 44 -100 89 -220
15 -41 34 -82 41 -91 7 -8 13 -20 13 -25 0 -6 14 -29 31 -52 32 -44 60 -53
100 -32 57 31 96 208 101 465 l3 120 60 3 c70 3 96 -8 76 -32 -30 -36 27 -351
71 -388 27 -23 59 -23 90 2 33 25 83 171 115 333 5 26 8 27 42 21 20 -4 40
-10 45 -15 16 -14 70 4 90 30 35 47 281 291 293 291 7 0 16 6 20 14 11 18 156
134 228 181 82 54 222 114 268 114 30 1 44 -6 76 -39z m-2549 -285 c0 -9 -9
-15 -21 -15 -18 0 -19 2 -9 15 7 8 16 15 21 15 5 0 9 -7 9 -15z m3519 -2868
c47 -12 42 -24 -38 -88 -74 -59 -80 -67 -81 -101 0 -36 2 -38 30 -38 17 0 57
16 93 38 34 20 73 42 87 48 76 35 196 45 253 20 37 -16 88 -69 105 -108 12
-28 12 -28 -31 -28 -49 0 -140 -35 -183 -70 -47 -38 -86 -96 -82 -122 6 -41
31 -36 160 29 14 7 47 16 72 19 41 6 48 4 75 -23 35 -35 48 -89 32 -134 -6
-18 -11 -44 -11 -59 0 -15 -9 -35 -20 -45 -11 -10 -20 -24 -20 -31 0 -15 -109
-114 -125 -114 -6 0 -26 -11 -45 -25 -19 -14 -43 -25 -54 -25 -12 0 -34 -9
-51 -20 -16 -10 -39 -17 -50 -14 -11 3 -47 -5 -80 -17 -33 -13 -87 -24 -120
-25 -85 -2 -85 -3 -79 -18 3 -8 -3 -20 -13 -27 -11 -8 -34 -35 -52 -62 -57
-83 -180 -204 -269 -264 -100 -66 -187 -113 -212 -113 -10 0 -23 -7 -30 -15
-7 -8 -31 -20 -54 -25 -22 -6 -50 -15 -61 -19 -37 -16 -105 -32 -114 -27 -4 3
-7 20 -5 38 6 82 5 108 -5 180 -7 43 -23 103 -36 133 -25 55 -129 175 -153
175 -7 0 -24 8 -38 17 -14 9 -42 19 -62 22 -31 5 -37 11 -45 41 -5 19 -13 39
-18 45 -5 5 -9 20 -9 33 0 13 -8 41 -19 61 -10 20 -24 47 -30 61 -6 14 -20 40
-32 59 -25 42 -19 49 19 22 17 -12 41 -21 54 -21 12 0 47 -9 76 -20 83 -32
307 -24 347 11 5 5 20 9 35 9 14 0 36 9 50 20 14 11 30 20 37 20 17 0 103 59
103 71 0 5 5 9 11 9 12 0 69 58 69 70 0 5 9 11 19 15 10 3 21 13 25 23 8 24
42 80 60 101 9 10 16 20 16 24 0 27 143 192 195 225 47 29 102 55 135 62 37 9
129 7 169 -3z m-4259 -51 c0 -3 -4 -8 -10 -11 -5 -3 -10 -1 -10 4 0 6 5 11 10
11 6 0 10 -2 10 -4z m20 -36 c0 -5 -4 -10 -10 -10 -5 0 -10 5 -10 10 0 6 5 10
10 10 6 0 10 -4 10 -10z m-982 -129 c9 -5 31 -15 47 -22 44 -20 134 -88 178
-134 49 -51 105 -136 118 -177 6 -18 17 -45 25 -60 8 -14 14 -37 14 -51 0 -23
-5 -26 -52 -32 -66 -9 -181 -56 -275 -112 -39 -24 -76 -43 -82 -43 -5 0 -12
14 -16 30 -8 38 -132 165 -179 185 -19 8 -37 19 -41 25 -3 5 -18 10 -33 10
-15 1 -38 7 -52 15 -14 8 -41 14 -61 15 -36 0 -37 0 -30 -33 4 -17 14 -44 22
-59 15 -29 80 -84 110 -93 10 -4 19 -10 19 -15 0 -13 -37 0 -56 21 -9 10 -23
19 -31 19 -7 0 -16 7 -19 15 -4 8 -12 15 -19 15 -7 0 -23 17 -36 38 -32 53
-38 203 -8 240 10 14 19 30 19 37 0 13 82 93 115 112 11 6 36 19 55 27 19 9
42 20 50 25 19 12 195 14 218 2z m1387 -52 c10 -15 -1 -23 -20 -15 -9 3 -13
10 -10 16 8 13 22 13 30 -1z m27 -271 c15 -6 25 -14 22 -19 -9 -15 -44 -10
-50 6 -7 17 -69 21 -79 5 -3 -5 -13 -10 -22 -10 -14 0 -14 3 2 20 14 16 26 19
59 14 23 -3 53 -10 68 -16z m1736 -36 c2 -7 -6 -12 -17 -12 -12 0 -21 -5 -21
-11 0 -5 -5 -7 -11 -4 -7 5 -4 13 8 25 19 20 34 21 41 2z m-558 -12 c0 -13
-30 -13 -50 0 -11 7 -7 10 18 10 17 0 32 -4 32 -10z m151 -11 l-33 -20 23 -19
c12 -11 28 -20 36 -20 7 0 13 -4 13 -10 0 -14 -16 -12 -51 5 -16 9 -34 13 -39
10 -5 -3 -15 -1 -22 4 -33 27 -68 59 -68 62 0 2 39 5 87 6 l87 2 -33 -20z
m-627 0 c24 1 27 -1 17 -13 -9 -11 -9 -15 1 -19 7 -2 10 -7 7 -10 -7 -9 -119
15 -119 25 0 13 34 28 50 21 8 -3 28 -5 44 -4z m133 -5 c-3 -3 -12 -4 -19 -1
-8 3 -5 6 6 6 11 1 17 -2 13 -5z m573 -14 c0 -5 -8 -10 -17 -10 -15 0 -16 2
-3 10 19 12 20 12 20 0z m-1280 -10 c0 -13 -11 -13 -30 0 -12 8 -11 10 8 10
12 0 22 -4 22 -10z m1655 0 c3 -5 1 -10 -4 -10 -6 0 -11 5 -11 10 0 6 2 10 4
10 3 0 8 -4 11 -10z m-1150 -41 c-16 -3 -34 -3 -40 0 -5 3 4 8 20 12 17 3 35
3 40 0 6 -3 -3 -8 -20 -12z m1131 9 c3 -4 -23 -7 -58 -7 -50 1 -57 3 -33 9 37
9 85 8 91 -2z m-696 -8 c-20 -13 -40 -13 -40 0 0 6 12 10 28 10 21 0 24 -2 12
-10z m-530 -20 c0 -5 -19 -10 -42 -10 -32 0 -39 3 -28 10 20 13 70 13 70 0z
m870 0 c-19 -13 -30 -13 -30 0 0 6 10 10 23 10 18 0 19 -2 7 -10z m60 0 c0 -5
-2 -10 -4 -10 -3 0 -8 5 -11 10 -3 6 -1 10 4 10 6 0 11 -4 11 -10z m85 -10
c16 -7 11 -9 -20 -9 -29 -1 -36 2 -25 9 17 11 19 11 45 0z m-3190 -100 c3 -5
-1 -10 -10 -10 -9 0 -13 5 -10 10 3 6 8 10 10 10 2 0 7 -4 10 -10z m45 -30 c8
-5 11 -12 7 -16 -4 -4 -15 0 -24 9 -18 18 -8 23 17 7z m50 -62 c0 -6 -6 -5
-15 2 -8 7 -15 14 -15 16 0 2 7 1 15 -2 8 -4 15 -11 15 -16z m515 -200 c-3
-18 -9 -65 -15 -105 -5 -39 -10 -97 -10 -127 0 -51 -3 -57 -32 -78 -18 -13
-45 -30 -61 -38 -15 -7 -68 -46 -117 -87 -50 -40 -96 -73 -104 -73 -18 0 -23
49 -22 236 1 116 4 155 15 168 37 44 217 115 343 135 4 1 5 -14 3 -31z m-438
-185 c-3 -10 -5 -2 -5 17 0 19 2 27 5 18 2 -10 2 -26 0 -35z m5 -223 c2 -23 0
-46 -4 -53 -5 -7 -8 0 -8 18 0 17 -3 40 -6 53 -4 12 -2 22 4 22 5 0 12 -18 14
-40z m517 -367 c6 -49 15 -101 21 -118 5 -16 12 -47 15 -67 3 -21 10 -38 15
-38 5 0 14 -15 20 -34 6 -19 18 -40 26 -46 7 -7 14 -19 14 -26 0 -25 -25 -15
-44 19 -25 42 -101 117 -121 117 -8 0 -25 6 -36 13 -17 10 -23 10 -26 0 -5
-15 -43 -18 -43 -3 0 5 8 13 18 19 15 9 14 13 -15 43 -18 19 -33 41 -33 50 0
14 155 156 171 157 4 1 11 -38 18 -86z m211 -43 c0 -20 9 -53 20 -74 13 -26
16 -44 11 -54 -7 -13 -12 -9 -23 18 -25 58 -42 136 -34 156 6 16 9 16 16 4 6
-8 10 -31 10 -50z m71 -165 c5 4 9 -3 9 -13 0 -22 23 -46 33 -35 4 3 7 0 7 -9
0 -28 -14 -28 -39 0 -54 60 -55 60 -40 79 13 15 14 14 17 -5 2 -12 8 -20 13
-17z m-371 -5 c0 -5 -4 -10 -10 -10 -5 0 -10 5 -10 10 0 6 5 10 10 10 6 0 10
-4 10 -10z m100 -65 c0 -8 -4 -15 -10 -15 -5 0 -7 7 -4 15 4 8 8 15 10 15 2 0
4 -7 4 -15z m140 -117 c0 -5 -11 -7 -25 -5 -25 3 -28 9 -17 35 3 10 9 9 23 -4
11 -9 19 -21 19 -26z m445 -8 c11 -17 -5 -32 -21 -19 -8 6 -14 15 -14 20 0 12
27 11 35 -1z m-412 -16 c8 -8 -3 -34 -14 -34 -5 0 -9 9 -9 20 0 19 11 26 23
14z m270 -210 c-3 -8 -9 -14 -13 -14 -11 0 -21 30 -14 41 9 15 34 -10 27 -27z
m72 -4 c3 -5 -1 -10 -9 -10 -8 0 -18 5 -21 10 -3 6 1 10 9 10 8 0 18 -4 21
-10z m98 -27 c20 -3 40 -9 43 -14 3 -5 18 -9 34 -9 16 0 32 -4 35 -10 4 -6 -8
-10 -29 -10 -20 0 -36 5 -36 10 0 6 -11 10 -24 10 -12 0 -38 5 -57 11 -41 14
-67 36 -29 24 14 -4 42 -9 63 -12z m257 -53 c0 -5 -20 -10 -44 -10 -25 0 -48
5 -51 10 -4 6 13 10 44 10 28 0 51 -4 51 -10z m75 -20 c4 -6 -6 -10 -22 -10
-22 0 -25 2 -13 10 19 12 27 12 35 0z m35 -80 c0 -14 -9 -12 -26 4 -20 21 -17
28 6 16 11 -6 20 -15 20 -20z m2340 -35 c0 -8 -7 -15 -16 -15 -14 0 -14 3 -4
15 7 8 14 15 16 15 2 0 4 -7 4 -15z m-43 -11 c-3 -3 -12 -4 -19 -1 -8 3 -5 6
6 6 11 1 17 -2 13 -5z m-77 -14 c-20 -13 -33 -13 -25 0 3 6 14 10 23 10 15 0
15 -2 2 -10z"/>
<path d="M3262 7330 c0 -14 2 -19 5 -12 2 6 2 18 0 25 -3 6 -5 1 -5 -13z"/>
<path d="M6745 7281 c-3 -5 -1 -12 5 -16 5 -3 10 1 10 9 0 18 -6 21 -15 7z"/>
<path d="M5860 6780 c-57 -9 -109 -29 -142 -55 -30 -25 -45 -79 -28 -100 16
-19 68 -19 113 0 45 19 110 19 162 0 22 -8 49 -15 60 -15 11 0 31 -9 45 -20
14 -11 31 -20 38 -20 7 0 24 -7 37 -16 13 -8 36 -14 52 -12 26 3 28 6 31 53 3
49 2 51 -45 87 -91 69 -232 112 -323 98z"/>
<path d="M6762 6765 c0 -16 2 -22 5 -12 2 9 2 23 0 30 -3 6 -5 -1 -5 -18z"/>
<path d="M4440 6669 c-50 -10 -137 -43 -190 -73 -76 -42 -158 -139 -146 -172
8 -20 78 -18 107 4 13 9 44 26 69 38 137 64 139 64 225 64 46 0 95 -5 109 -11
20 -9 32 -8 60 5 20 9 36 21 36 26 0 4 3 15 6 23 3 8 -8 30 -26 50 -25 29 -41
37 -93 46 -72 12 -93 12 -157 0z"/>
<path d="M5925 6318 c-75 -19 -140 -53 -187 -97 -27 -25 -48 -50 -48 -56 0 -7
-9 -20 -20 -30 -11 -10 -20 -28 -20 -40 0 -12 -7 -35 -15 -51 -32 -65 -27
-299 6 -320 5 -3 9 -16 9 -30 0 -34 54 -126 110 -187 26 -29 78 -70 116 -91
67 -39 72 -40 164 -40 84 0 101 3 145 26 82 43 129 90 168 170 59 122 72 184
60 286 -14 114 -27 159 -64 231 -55 104 -176 211 -255 225 -73 13 -129 14
-169 4z m191 -130 c58 -37 122 -113 157 -188 29 -61 31 -72 32 -180 0 -104 -3
-120 -26 -170 -15 -30 -45 -76 -68 -101 -34 -39 -50 -49 -101 -62 -59 -15
-132 -9 -153 12 -4 5 16 33 45 63 88 90 114 220 70 342 -35 96 -79 127 -182
129 -71 1 -135 -71 -146 -165 -4 -32 -10 -58 -15 -58 -26 0 -22 120 6 214 28
93 66 137 148 173 72 32 174 28 233 -9z m-157 -243 c37 -19 44 -39 27 -80 -29
-69 -80 -64 -91 9 -7 44 6 86 26 86 5 0 23 -7 38 -15z"/>
<path d="M4342 6250 c-18 -11 -38 -20 -46 -20 -7 0 -21 -9 -31 -20 -10 -11
-23 -20 -29 -20 -15 0 -106 -92 -106 -106 0 -6 -9 -19 -20 -29 -11 -10 -20
-25 -20 -34 0 -9 -8 -27 -17 -41 -9 -13 -21 -44 -25 -69 -30 -158 -31 -171
-19 -234 7 -34 16 -78 18 -97 3 -19 19 -55 36 -79 41 -60 139 -161 155 -161 8
0 26 -9 41 -19 36 -26 168 -45 250 -36 114 12 245 97 291 188 11 23 25 49 30
57 4 8 13 35 20 60 7 25 16 53 21 62 5 10 9 64 9 120 0 133 -25 212 -103 329
-43 63 -97 103 -199 148 -67 29 -208 30 -256 1z m186 -102 c53 -13 134 -62
173 -104 15 -16 40 -54 55 -84 28 -52 29 -61 29 -185 0 -127 -1 -132 -33 -197
-82 -165 -240 -237 -394 -177 -75 29 -152 100 -193 179 -26 51 -28 64 -29 166
-1 108 0 112 36 185 59 119 120 179 217 214 46 17 80 18 139 3z"/>
<path d="M4365 5961 c-69 -42 -105 -125 -105 -239 0 -187 105 -308 237 -272
98 28 152 139 140 287 -8 103 -23 140 -77 194 -47 47 -51 49 -107 49 -39 0
-68 -6 -88 -19z m165 -91 c20 -20 26 -55 12 -77 -12 -18 -60 -27 -77 -13 -19
16 -19 60 1 88 19 27 38 28 64 2z"/>
<path d="M5345 5613 c-156 -5 -236 -44 -267 -128 -16 -43 -16 -47 3 -91 21
-51 82 -113 142 -144 33 -18 37 -24 37 -61 0 -26 -8 -52 -21 -70 -54 -77 -218
-111 -334 -70 -71 25 -104 56 -142 131 -20 39 -35 56 -51 58 -76 11 -68 -126
13 -233 22 -28 29 -54 40 -137 17 -128 19 -134 76 -252 37 -74 119 -167 184
-206 53 -33 170 -70 220 -70 22 0 71 11 110 24 109 38 172 109 244 276 20 48
55 171 65 231 8 44 19 55 67 64 40 7 106 65 143 125 25 40 56 131 56 165 0 29
-36 75 -59 75 -20 0 -51 -30 -51 -48 0 -28 -51 -136 -77 -162 -36 -37 -92 -60
-140 -59 -90 1 -191 56 -214 116 -9 24 -3 53 12 53 5 0 29 9 54 21 130 61 209
215 149 292 -61 76 -132 104 -259 100z m105 -140 c53 -36 52 -51 -6 -113 -61
-65 -84 -65 -170 -4 -81 58 -91 74 -61 101 31 29 42 31 132 32 60 1 87 -3 105
-16z m-170 -769 c66 -42 109 -99 110 -142 0 -45 -27 -81 -73 -93 -62 -17 -174
-5 -202 21 -11 11 -25 20 -29 20 -22 0 -156 155 -156 181 0 28 100 49 215 45
81 -3 96 -6 135 -32z"/>
<path d="M3386 4671 c-3 -4 3 -16 13 -25 22 -20 40 -4 21 19 -14 17 -26 19
-34 6z"/>
<path d="M4037 4319 c-9 -6 -17 -17 -17 -24 0 -20 6 -19 30 5 22 22 14 34 -13
19z"/>
<path d="M4230 4263 c2 -28 85 -82 102 -65 11 11 -29 53 -46 46 -7 -3 -16 2
-19 10 -6 16 -37 23 -37 9z"/>
<path d="M4425 4220 c3 -5 8 -10 11 -10 2 0 4 5 4 10 0 6 -5 10 -11 10 -5 0
-7 -4 -4 -10z"/>
<path d="M4525 4180 c3 -5 15 -10 26 -10 11 0 17 5 14 10 -3 6 -15 10 -26 10
-11 0 -17 -4 -14 -10z"/>
<path d="M5985 4056 c-54 -12 -104 -41 -91 -53 4 -4 16 -2 26 5 11 7 26 12 33
12 8 0 36 11 63 25 53 27 47 29 -31 11z"/>
<path d="M5775 4020 c-11 -18 14 -30 63 -30 30 0 42 4 42 15 0 9 -10 14 -27
13 -16 0 -38 3 -49 7 -13 4 -25 2 -29 -5z"/>
<path d="M3659 2375 c-1 -3 -2 -10 -3 -15 0 -6 -7 -15 -15 -19 -24 -15 8 -25
35 -10 30 15 32 49 4 49 -11 0 -21 -2 -21 -5z"/>
<path d="M3726 2342 c-6 -17 -2 -27 16 -42 23 -18 114 -38 125 -26 4 3 -3 6
-15 6 -12 0 -22 5 -22 10 0 6 5 10 10 10 22 0 9 41 -16 52 -22 10 -27 9 -35
-5 -13 -22 -28 -22 -44 0 -11 15 -13 15 -19 -5z"/>
<path d="M3967 2314 c-10 -11 42 -46 58 -40 24 9 17 23 -16 35 -38 13 -34 13
-42 5z"/>
<path d="M4070 2272 c0 -4 15 -23 34 -41 22 -22 36 -29 41 -21 6 10 -15 44
-40 62 -13 10 -35 10 -35 0z"/>
<path d="M4150 2180 c0 -12 7 -20 16 -20 11 0 14 -5 10 -16 -7 -17 19 -54 37
-54 6 0 18 -7 28 -16 16 -14 18 -14 24 5 3 12 13 21 22 21 13 0 13 3 3 15 -7
8 -19 15 -26 15 -8 0 -23 8 -34 18 -11 9 -29 25 -40 35 -26 22 -40 22 -40 -3z
m85 -68 c-6 -7 -35 18 -35 31 0 5 9 2 20 -8 11 -10 18 -20 15 -23z"/>
<path d="M4330 2076 c0 -8 8 -20 18 -25 9 -6 12 -11 4 -11 -7 0 -21 5 -31 12
-10 6 -27 8 -37 4 -15 -6 -9 -11 30 -24 37 -12 51 -13 54 -4 6 19 30 14 44 -8
15 -23 30 -27 22 -6 -3 8 -1 17 5 21 19 11 12 25 -12 25 -13 0 -27 4 -32 9 -6
4 -22 11 -37 15 -21 5 -28 3 -28 -8z"/>
<path d="M4505 2030 c-3 -5 1 -10 10 -10 9 0 13 5 10 10 -3 6 -8 10 -10 10 -2
0 -7 -4 -10 -10z"/>
<path d="M8110 3940 c0 -5 7 -7 15 -4 8 4 15 8 15 10 0 2 -7 4 -15 4 -8 0 -15
-4 -15 -10z"/>
<path d="M8072 3931 c4 -13 18 -16 19 -4 0 4 -5 9 -11 12 -7 2 -11 -2 -8 -8z"/>
<path d="M8026 3905 c-3 -8 -15 -15 -26 -15 -12 0 -32 -11 -46 -25 -14 -14
-29 -23 -34 -20 -12 8 -110 -15 -110 -26 0 -5 5 -9 11 -9 5 0 7 -4 4 -10 -3
-5 -17 -10 -31 -10 -16 0 -23 -4 -18 -11 11 -18 86 0 184 43 71 32 75 35 72
52 -2 9 2 16 8 16 5 0 10 7 10 15 0 8 -4 15 -9 15 -5 0 -11 -7 -15 -15z m-106
-85 c0 -5 -8 -10 -17 -10 -15 0 -16 2 -3 10 19 12 20 12 20 0z"/>
<path d="M7755 3810 c-7 -12 2 -12 30 0 19 8 19 9 -2 9 -12 1 -25 -3 -28 -9z"/>
<path d="M7654 3795 c-4 -9 -3 -20 2 -25 12 -12 84 7 84 22 0 6 -9 8 -22 5
-12 -3 -30 -2 -40 4 -14 7 -20 6 -24 -6z"/>
<path d="M7600 3780 c0 -5 -8 -10 -19 -10 -19 0 -50 -55 -37 -67 3 -3 6 0 6 8
0 8 14 22 30 31 17 9 30 13 30 8 0 -6 11 -10 24 -10 22 0 23 2 13 25 -12 24
-47 35 -47 15z"/>
<path d="M7409 3578 c-20 -24 -53 -55 -72 -68 -38 -26 -51 -45 -42 -60 10 -15
35 1 35 22 0 13 5 18 13 15 16 -6 28 1 42 24 6 9 23 33 38 53 42 52 28 65 -14
14z"/>
<path d="M7256 3414 c-9 -24 -7 -28 9 -14 17 14 20 30 6 30 -5 0 -12 -7 -15
-16z"/>
<path d="M7210 3398 c0 -18 5 -28 15 -28 19 0 19 11 0 36 -14 18 -14 18 -15
-8z"/>
<path d="M7130 3341 c13 -11 29 -17 34 -14 11 8 -22 33 -43 33 -11 0 -9 -6 9
-19z"/>
<path d="M7032 3325 c-11 -13 -9 -15 8 -15 29 0 20 -24 -11 -30 -13 -3 -36
-13 -51 -23 -21 -14 -31 -16 -47 -8 -24 13 -61 14 -61 2 0 -18 60 -23 111 -10
49 13 112 60 90 67 -6 2 -11 10 -11 18 0 18 -11 17 -28 -1z"/>
<path d="M7102 3316 c1 -10 8 -17 13 -17 15 1 12 24 -3 29 -9 3 -13 -2 -10
-12z"/>
<path d="M6795 3301 c-3 -5 -1 -12 5 -16 12 -7 30 2 30 16 0 12 -27 12 -35 0z"/>
<path d="M6925 3290 c-4 -6 7 -10 24 -10 17 0 31 5 31 10 0 6 -11 10 -24 10
-14 0 -28 -4 -31 -10z"/>
<path d="M1601 5893 c-17 -31 -31 -64 -31 -72 0 -9 -9 -29 -20 -46 -11 -16
-20 -39 -20 -51 0 -11 -7 -35 -16 -52 -18 -36 -26 -38 -188 -46 -128 -7 -179
-26 -184 -69 -3 -25 41 -74 191 -209 38 -34 39 -36 34 -94 -2 -32 -10 -77 -16
-99 -19 -63 -30 -176 -20 -202 7 -19 16 -23 47 -23 23 0 49 8 63 18 13 10 31
22 39 25 8 4 35 20 60 37 25 16 64 40 87 54 42 24 43 24 67 5 13 -10 27 -19
30 -19 3 0 28 -15 54 -33 93 -66 137 -87 181 -87 55 0 70 28 52 98 -7 26 -16
76 -21 112 -4 36 -15 85 -24 110 l-16 45 120 115 c134 128 147 155 85 187 -27
15 -151 33 -219 33 -64 0 -106 14 -106 35 0 8 -9 29 -20 47 -11 18 -20 41 -20
51 0 11 -8 31 -19 45 -10 15 -21 40 -25 56 -13 54 -44 86 -81 86 -30 0 -36 -5
-64 -57z m90 -185 c7 -24 19 -52 26 -63 7 -11 13 -27 13 -36 0 -10 12 -31 26
-48 23 -28 31 -31 82 -31 50 0 101 -9 151 -26 9 -3 -6 -23 -45 -59 -32 -30
-62 -55 -66 -55 -4 0 -15 -11 -23 -24 -14 -21 -14 -36 -5 -113 7 -48 15 -97
20 -108 29 -70 22 -70 -78 -4 -103 68 -125 71 -204 25 -35 -19 -78 -45 -97
-58 l-34 -22 7 65 c4 35 14 90 22 122 18 72 13 82 -84 162 -37 31 -67 59 -67
62 0 9 113 32 163 32 24 1 52 6 63 11 19 11 59 82 59 107 0 18 42 103 52 103
4 0 13 -19 19 -42z"/>
<path d="M8522 5918 c-11 -18 -27 -51 -35 -73 -39 -106 -57 -149 -67 -159 -5
-5 -10 -18 -10 -27 0 -20 -7 -21 -196 -37 -128 -11 -164 -27 -164 -73 0 -29
32 -64 192 -210 40 -36 49 -50 43 -65 -14 -35 -26 -89 -35 -154 -4 -36 -14
-84 -20 -108 -11 -38 -10 -45 5 -62 32 -35 76 -26 177 39 51 32 108 68 126 80
l33 21 48 -35 c27 -18 75 -48 107 -65 32 -17 65 -37 74 -44 22 -19 59 -26 86
-16 22 9 24 15 24 67 0 32 -7 85 -16 118 -9 33 -19 89 -23 125 l-7 65 55 55
c31 30 84 81 119 112 34 31 62 65 62 76 0 36 -41 60 -123 71 -43 6 -102 11
-130 11 -29 0 -61 3 -73 6 -21 6 -64 70 -64 95 0 8 -9 32 -19 54 -10 22 -32
68 -47 103 -27 60 -29 62 -65 62 -31 0 -41 -5 -57 -32z m78 -208 c11 -21 20
-45 20 -51 0 -24 50 -117 66 -123 8 -3 34 -6 57 -6 22 0 67 -5 99 -12 57 -12
73 -29 44 -45 -8 -4 -44 -36 -80 -71 -73 -69 -76 -79 -52 -165 36 -130 29
-160 -27 -117 -41 32 -137 80 -161 80 -11 0 -50 -18 -86 -40 -36 -21 -78 -47
-94 -55 l-29 -17 7 34 c18 87 34 211 30 223 -3 7 -41 46 -86 86 l-80 73 53 13
c30 7 81 12 114 13 69 0 99 16 110 57 3 16 13 44 22 63 8 19 21 50 29 68 7 17
16 32 19 32 2 0 14 -18 25 -40z"/>
<path d="M1826 3569 c-14 -11 -26 -29 -26 -39 0 -18 30 -80 52 -107 6 -8 2
-16 -14 -25 -13 -7 -32 -19 -43 -25 -11 -7 -45 -27 -75 -45 -78 -46 -197 -126
-204 -136 -3 -5 3 -31 13 -58 16 -46 20 -49 49 -46 17 1 58 19 89 39 32 21 69
44 83 51 14 6 43 23 65 37 22 13 47 27 55 31 8 4 23 14 33 23 21 18 21 19 69
-63 31 -53 50 -63 81 -48 12 5 30 13 40 16 39 12 24 51 -105 274 -12 20 -30
53 -40 72 -39 76 -71 89 -122 49z"/>
<path d="M8276 3549 c-51 -76 -47 -83 89 -153 66 -33 122 -62 125 -64 17 -11
-41 -21 -161 -27 -155 -8 -174 -15 -206 -82 l-17 -36 34 -29 c19 -15 37 -28
41 -28 4 0 35 -18 68 -40 33 -22 62 -40 65 -40 2 0 32 -18 65 -40 33 -22 62
-40 65 -40 3 0 25 -13 49 -30 25 -16 51 -30 58 -30 18 0 79 90 79 116 0 15
-20 30 -76 59 -42 22 -89 47 -106 56 -35 18 -34 34 2 31 14 -2 66 4 115 13 50
9 109 19 133 22 36 5 48 12 69 44 28 42 28 82 -1 87 -10 2 -44 20 -75 40 -31
21 -67 43 -81 50 -14 6 -45 25 -70 41 -25 16 -67 42 -95 57 -27 14 -62 35 -77
45 -40 29 -62 24 -92 -22z"/>
<path d="M2035 3089 c-88 -60 -225 -158 -235 -169 -3 -3 -22 -16 -42 -30 -21
-14 -38 -31 -38 -38 0 -38 60 -109 82 -98 33 17 61 35 67 43 9 12 69 53 78 53
5 0 16 -12 25 -27 9 -16 32 -44 52 -63 19 -19 36 -39 36 -45 0 -5 -36 -37 -80
-69 -44 -33 -80 -64 -80 -69 0 -11 48 -78 64 -89 23 -16 47 -6 134 60 50 37
136 100 191 141 65 47 101 80 101 92 0 10 -11 30 -25 45 -14 15 -25 30 -25 33
0 3 -8 11 -18 17 -15 10 -29 3 -82 -37 -36 -27 -68 -49 -72 -49 -4 0 -14 12
-22 28 -8 15 -29 41 -45 59 -17 18 -31 36 -31 41 0 5 32 31 70 57 39 26 73 51
76 56 8 14 -67 119 -85 119 -3 0 -46 -28 -96 -61z"/>
<path d="M8044 3091 c-20 -14 -74 -91 -74 -105 0 -9 10 -21 21 -28 34 -20 362
-236 382 -252 10 -8 26 -12 35 -9 18 5 82 83 82 100 0 6 -15 20 -32 32 -62 39
-72 46 -92 64 -11 9 -25 17 -31 17 -7 0 -20 9 -30 20 -10 11 -22 20 -26 20 -4
0 -57 33 -117 74 -60 41 -113 71 -118 67z"/>
<path d="M7856 2805 c-15 -8 -33 -15 -40 -15 -26 0 -108 -85 -138 -143 -28
-56 -30 -68 -25 -132 9 -132 88 -232 218 -274 118 -37 256 27 323 150 26 47
29 65 30 134 0 63 -5 89 -23 125 -23 45 -116 140 -137 140 -7 0 -25 7 -40 15
-16 8 -54 15 -84 15 -30 0 -68 -7 -84 -15z m180 -176 c31 -29 58 -93 50 -121
-10 -40 -45 -87 -78 -109 -65 -40 -157 -7 -193 68 -23 48 -23 82 0 133 15 33
27 43 69 59 45 17 54 17 90 4 22 -7 50 -23 62 -34z"/>
<path d="M2274 2506 l-187 -185 136 -136 c146 -147 145 -147 193 -93 39 44 39
46 -46 132 -75 78 -80 85 -68 105 7 12 18 21 24 21 7 0 43 -31 81 -70 39 -38
73 -70 76 -70 13 0 77 74 77 90 0 9 -29 45 -65 79 -36 35 -65 65 -65 69 0 3
10 16 22 29 l22 24 83 -83 c93 -92 92 -92 147 -24 l30 37 -124 120 c-69 66
-130 125 -137 130 -9 8 -64 -41 -199 -175z"/>
<path d="M7441 2388 c-52 -15 -135 -76 -152 -113 -6 -11 -16 -31 -24 -45 -10
-16 -15 -54 -15 -108 0 -97 23 -153 92 -218 119 -111 318 -87 417 50 25 35 32
57 34 98 l2 53 -65 0 -64 0 -7 -35 c-12 -56 -51 -80 -131 -80 -66 0 -67 0
-102 42 -31 35 -36 49 -36 90 0 70 37 124 93 134 23 4 46 7 51 6 4 -2 17 0 27
3 27 9 27 95 1 118 -20 19 -68 21 -121 5z"/>
<path d="M2913 2104 c-52 -76 -148 -211 -199 -279 -11 -14 -19 -30 -19 -37 0
-6 22 -29 48 -52 l49 -41 39 45 c21 25 39 51 39 58 0 25 30 24 61 -2 122 -103
250 -83 314 48 21 43 25 61 19 97 -6 37 -17 54 -71 107 -36 34 -69 62 -74 62
-5 0 -32 18 -60 40 -28 22 -59 40 -69 40 -13 0 -39 -30 -77 -86z m177 -132
l44 -39 -24 -31 c-29 -36 -46 -39 -80 -12 -14 11 -30 20 -37 20 -25 0 -23 21
4 60 15 22 33 40 38 40 6 0 30 -17 55 -38z"/>
<path d="M6875 1985 c-22 -12 -67 -37 -100 -54 -165 -87 -205 -113 -205 -135
0 -21 47 -96 61 -96 4 0 28 14 52 30 25 17 48 30 51 30 7 0 76 -147 76 -161 0
-5 11 -27 25 -49 14 -22 25 -48 25 -59 0 -11 5 -23 11 -26 5 -4 14 -18 19 -31
12 -30 52 -32 98 -4 39 24 49 46 34 71 -20 32 -29 50 -72 144 -23 50 -51 109
-63 133 l-22 43 24 20 c13 10 28 19 35 19 6 0 24 11 39 25 21 21 25 30 17 43
-6 9 -19 30 -28 46 -23 38 -29 39 -77 11z"/>
<path d="M3315 1835 c-25 -52 -50 -97 -55 -100 -6 -4 -10 -15 -10 -27 0 -11
-8 -32 -19 -46 -21 -32 -33 -111 -23 -165 9 -46 64 -106 132 -141 39 -21 64
-26 117 -26 61 0 73 4 115 35 35 26 55 52 84 110 21 42 41 78 46 81 4 3 8 15
8 27 0 12 9 33 20 47 11 14 20 31 20 38 0 7 5 21 12 31 17 28 4 49 -47 73 -34
17 -50 20 -62 12 -19 -12 -18 -11 -66 -114 -61 -132 -67 -144 -92 -174 -47
-58 -145 -24 -145 50 0 20 25 81 65 161 38 74 65 138 63 151 -3 21 -17 32 -80
64 -10 4 -22 8 -27 8 -5 0 -30 -43 -56 -95z"/>
<path d="M4010 1910 c0 -18 6 -21 45 -19 27 2 44 7 42 13 -2 6 -14 10 -26 9
-11 -2 -21 2 -21 7 0 6 -9 10 -20 10 -13 0 -20 -7 -20 -20z"/>
<path d="M4115 1830 c-3 -5 3 -10 14 -10 11 0 23 5 26 10 3 6 -3 10 -14 10
-11 0 -23 -4 -26 -10z"/>
<path d="M4206 1814 c-4 -10 -1 -14 6 -12 15 5 23 28 10 28 -5 0 -13 -7 -16
-16z"/>
<path d="M4258 1803 c-10 -2 -18 -8 -18 -13 0 -9 10 -13 63 -24 30 -7 33 0 13
27 -13 17 -25 19 -58 10z"/>
<path d="M6315 1728 c-67 -35 -122 -86 -156 -144 -30 -52 -31 -60 -27 -132 5
-84 24 -126 86 -193 35 -38 131 -79 187 -79 84 0 224 81 260 150 19 37 12 53
-31 73 -52 25 -77 22 -98 -14 -32 -54 -112 -74 -181 -45 -36 16 -85 82 -85
116 0 39 47 115 82 134 33 18 101 19 138 3 19 -9 48 39 56 93 8 50 -10 60
-113 60 -59 -1 -88 -6 -118 -22z"/>
<path d="M3845 1681 c-8 -17 -22 -54 -30 -83 -8 -29 -24 -84 -36 -123 -80
-262 -79 -252 -15 -278 59 -25 76 -17 95 44 25 79 30 89 49 89 15 0 21 -13 31
-72 18 -103 29 -127 65 -142 51 -21 93 -26 104 -13 12 14 -1 94 -23 141 -17
38 -12 47 38 72 97 48 134 178 73 258 -30 40 -102 78 -180 96 -23 5 -55 16
-72 25 -47 24 -81 20 -99 -14z m183 -148 c42 -7 57 -34 40 -71 -16 -33 -51
-39 -103 -18 -29 13 -36 20 -30 33 4 10 10 31 13 46 4 24 8 28 26 22 11 -4 36
-9 54 -12z"/>
<path d="M5970 1608 c-14 -5 -63 -16 -110 -23 -117 -19 -183 -35 -197 -49 -9
-8 -8 -25 4 -71 8 -33 19 -89 23 -125 5 -36 14 -85 20 -110 7 -25 15 -72 19
-105 9 -79 26 -109 54 -100 12 4 60 14 107 22 47 7 107 20 134 28 26 8 59 15
71 15 29 0 34 22 20 80 -13 53 -27 58 -93 37 -66 -22 -141 -25 -152 -7 -20 31
-11 48 28 54 56 10 146 39 153 49 8 11 -13 83 -28 98 -9 9 -22 9 -55 1 -24 -7
-65 -13 -92 -14 -48 -3 -49 -2 -53 28 -4 31 -2 32 39 37 46 5 96 18 141 36 24
9 27 16 27 55 0 27 -6 51 -16 60 -8 9 -16 16 -17 15 -1 0 -13 -5 -27 -11z"/>
<path d="M4302 1523 c-5 -21 -14 -74 -20 -118 -6 -44 -15 -105 -21 -135 -19
-105 -31 -203 -26 -208 3 -3 31 -9 63 -13 73 -10 84 0 90 81 2 33 8 63 13 66
22 13 46 -19 68 -93 13 -43 29 -83 35 -90 6 -6 38 -13 71 -15 l60 -3 -3 39
c-2 22 -12 58 -23 80 -26 55 -24 73 11 91 50 26 83 86 84 153 2 117 -67 168
-260 191 -134 16 -132 17 -142 -26z m246 -126 c16 -13 15 -47 -3 -71 -11 -15
-23 -18 -60 -13 -26 2 -51 9 -55 13 -5 5 -6 28 -3 51 l5 42 52 -6 c28 -3 57
-10 64 -16z"/>
<path d="M5519 1525 c-3 -2 -70 -9 -149 -16 -80 -6 -148 -14 -152 -18 -8 -7 6
-295 22 -421 5 -46 16 -89 22 -96 9 -7 32 -9 68 -5 l55 6 1 100 1 100 88 7
c48 4 94 13 101 19 20 16 17 83 -3 108 -16 18 -23 19 -58 11 -22 -5 -64 -10
-93 -10 l-53 0 3 33 3 32 75 7 c41 5 89 13 107 19 31 10 33 13 33 58 0 26 -5
52 -12 59 -12 12 -50 17 -59 7z"/>
<path d="M4786 1294 c-11 -28 -6 -81 8 -93 20 -16 271 -34 296 -21 16 8 20 21
20 61 0 44 -3 51 -26 59 -14 6 -85 10 -159 10 -112 0 -134 -2 -139 -16z"/>
</g>
</svg>
